<?xml version="1.0" encoding="UTF-8"?>
<svg version="1.1" viewBox="0 0 24 24" xml:space="preserve" xmlns="http://www.w3.org/2000/svg" xmlns:cc="http://creativecommons.org/ns#" xmlns:dc="http://purl.org/dc/elements/1.1/" xmlns:rdf="http://www.w3.org/1999/02/22-rdf-syntax-ns#"><metadata><rdf:RDF><cc:Work rdf:about=""><dc:format>image/svg+xml</dc:format><dc:type rdf:resource="http://purl.org/dc/dcmitype/StillImage"/><dc:title/></cc:Work></rdf:RDF></metadata>
<g transform="matrix(.42777 0 0 .45161 8.2788e-5 -.6691)" fill="#666">
	<g fill="#666">
		<path d="m6.553 30.003c-1.6-2.5-3.2-6.3-2.4-9 0.4-1.3 1.5-2.2 2.7-2.2 0.6 0 1.3 0.2 1.9 0.7s1.1 1.2 1.5 1.9c0.2 0.3 0.4 0.6 0.6 0.8 1-1.6 2.3-3 3.9-4.3-0.9-0.3-1.9-0.7-3-1.4-1.7-1.1-3.8-1.8-5.7-1.8-1.6 0-4.6 0.5-5.7 4.1-1 3.1 0.1 9.4 3.6 14.1 1.2 1.6 3 3.5 5.5 4.5-0.9-1.7-1.5-3.6-1.6-5.7-0.5-0.5-0.9-1.1-1.3-1.7z"/>
		<path d="m29.053 46.103c-4.8 0-9.7-1-13.6-3-0.3 0.4-0.4 0.7-0.4 1.1 0 2.6 7 4 13.9 4s13.9-1.4 13.9-4c0-0.3-0.1-0.7-0.4-1-3.7 1.9-8.6 2.9-13.4 2.9z"/>
		<path d="m29.353 7.903c-1.7 0-3.1 0.7-3.1 2.8h6.1c0.1-2.1-1.3-2.8-3-2.8z"/>
		<path d="m55.553 15.403c-1.2-0.2-3.4-0.4-4.7 0.1-1.8 0.7-2.6 2.2-3.6 3.4-0.8 1-0.9 0.8-3.4 0.8-1.3-1.3-2.8-2.5-4.4-3.4 1.7-0.5 2.7-1.1 2.7-1.8 0-1.6-5.7-2.9-12.7-2.9s-12.7 1.3-12.7 2.9c0 0.6 0.9 1.2 2.5 1.7 4.2 1.2 10.6 0.9 10.6 0.9s-3 1.9-13.8 1.1c-4.2 3.2-7.1 7.8-7.1 13-0.1 9.5 10.1 13.8 20.1 13.8 10.1 0 20.2-4.3 20.2-13.8 0-1.2-0.2-2.3-0.4-3.4 0.5-0.4 0.8-1.1 0.8-1.1 0.4-0.7 2.1-7 3.9-9 0.6-0.7 1.3-1.1 1.9-1.4 0.8-0.5 0.9-0.8 0.1-0.9z"/>
	</g>
</g>
</svg>
