<?xml version="1.0" encoding="UTF-8"?>
<svg version="1.1" viewBox="0 0 24 24" xml:space="preserve" xmlns="http://www.w3.org/2000/svg" xmlns:cc="http://creativecommons.org/ns#" xmlns:dc="http://purl.org/dc/elements/1.1/" xmlns:rdf="http://www.w3.org/1999/02/22-rdf-syntax-ns#"><metadata><rdf:RDF><cc:Work rdf:about=""><dc:format>image/svg+xml</dc:format><dc:type rdf:resource="http://purl.org/dc/dcmitype/StillImage"/><dc:title/></cc:Work></rdf:RDF></metadata>
<path d="m19.389 4.1494c-0.88948 0-1.6105 0.69048-1.6105 1.5423v6.2485h-0.47368v-7.8944c0-0.85179-0.72104-1.5423-1.6105-1.5423-0.88948 0-1.6105 0.69048-1.6105 1.5423v7.8944h-0.47368v-9.3978c0-0.85179-0.72104-1.5423-1.6105-1.5423-0.88948 0-1.6105 0.69048-1.6105 1.5423v9.3978h-0.47368v-7.8944c0-0.85179-0.72104-1.5423-1.6105-1.5423s-1.6105 0.69048-1.6105 1.5423v11.977h-0.47368v-4.3546c0-0.85179-0.72104-1.5423-1.6105-1.5423-0.88948 0-1.6105 0.69048-1.6105 1.5423v5.3899c0 3.2765 2.7837 5.9423 6.2053 5.9423h5.5895c3.4216 0 6.2053-2.6657 6.2053-5.9423v-11.366c0-0.85179-0.72104-1.5423-1.6105-1.5423z" fill="#666" stroke-width=".046354"/>
</svg>
