<?xml version="1.0" encoding="UTF-8"?>
<svg enable-background="new 0 0 1000 1000" version="1.1" viewBox="0 0 24 24" xml:space="preserve" xmlns="http://www.w3.org/2000/svg" xmlns:cc="http://creativecommons.org/ns#" xmlns:dc="http://purl.org/dc/elements/1.1/" xmlns:rdf="http://www.w3.org/1999/02/22-rdf-syntax-ns#">
<metadata> Svg Vector Icons : http://www.onlinewebfonts.com/icon <rdf:RDF><cc:Work rdf:about=""><dc:format>image/svg+xml</dc:format><dc:type rdf:resource="http://purl.org/dc/dcmitype/StillImage"/><dc:title/></cc:Work></rdf:RDF></metadata>
<g transform="matrix(.021428 0 0 .021429 1.2857 1.2857)" fill="#666"><g transform="matrix(.1 0 0 -.1 0 512)" fill="#666"><path d="m100 2512.6v-2507.4h344.6v4670.4h4670.4v344.4h-5015z"/><path d="m6621.2 4327.1 637.4-637.4-2450-2450v-189.5l568.5-570.4c601-602.9 637.4-629.7 758-591.4 42.1 15.3 423 382.8 1272.9 1232.6l1209.7 1209.7 185.7-187.6c103.3-103.4 392.4-386.6 643.1-629.7l453.6-440.2v3889.4h-3914.4z"/><path d="m3889.8 299.9c-15.3-7.7-578.1-558.9-1248-1228.8l-1219.2-1217.4-455.6 442.2c-250.7 245-532.1 520.6-627.8 616.3-93.8 95.7-178 174.2-185.7 174.2-9.6 0-15.3-869-15.3-1933.2v-1933.2h3870.2l-457.4 474.7c-250.7 260.3-528.3 547.4-614.4 637.4l-155 162.7 1196.3 1196.2c658.4 656.5 1209.7 1217.4 1225 1246.1s26.8 84.2 26.8 124.4c0 68.9-24.9 95.7-580 652.7-539.7 539.8-585.7 581.9-656.5 587.6-40.2 5.8-88 3.9-103.4-1.9z"/><path d="m9494.2-2027.6-5.7-2340.9-2339-5.7-2340.9-3.8v-325.4h5014.8v5014.8h-325.4z"/></g></g>
</svg>
