<?xml version="1.0" encoding="UTF-8"?>
<svg enable-background="new 0 0 1000 1000" version="1.1" viewBox="0 0 24 24" xml:space="preserve" xmlns="http://www.w3.org/2000/svg" xmlns:cc="http://creativecommons.org/ns#" xmlns:dc="http://purl.org/dc/elements/1.1/" xmlns:rdf="http://www.w3.org/1999/02/22-rdf-syntax-ns#">
<metadata> Svg Vector Icons : http://www.onlinewebfonts.com/icon <rdf:RDF><cc:Work rdf:about=""><dc:format>image/svg+xml</dc:format><dc:type rdf:resource="http://purl.org/dc/dcmitype/StillImage"/><dc:title/></cc:Work></rdf:RDF></metadata>
<g transform="matrix(.02449 0 0 .02449 -.2449 -.2449)" fill="#666"><g transform="matrix(.1 0 0 -.1 0 511)" fill="#666"><path d="m4621.7 3966.5c-200.6-571.2-360.5-1046-355.4-1051.1s83.8 10.2 175.2 33c226 55.9 914 55.9 1137.4 0 86.3-20.3 157.4-33 157.4-22.8 0 33-723.6 2084.4-736.3 2084.4-7.6 0-177.7-469.7-378.3-1043.5z"/><path d="m1526.8 3570.5c7.6-10.2 220.9-459.5 477.3-997.8s472.2-987.6 482.4-997.8 68.6 58.4 129.5 152.3c142.2 220.9 543.3 624.6 764.2 769.3 93.9 60.9 167.6 114.2 165 116.8-2.5 2.5-426.5 208.2-944.5 454.5-515.4 248.8-972.4 467.1-1013 487.5-38 20.2-65.9 27.9-60.9 15.2z"/><path d="m7475.4 3098.2c-530.6-253.9-969.9-469.7-977.5-479.9-7.6-7.6 60.9-66 152.3-124.4 213.3-142.2 622-550.9 749-751.5 55.9-88.9 106.6-159.9 114.3-159.9 7.6 0 142.2 266.6 297.1 591.5 154.9 322.4 368.1 769.3 474.8 990.2 104.1 218.3 182.8 398.6 172.6 398.6-10.2 0.1-452-210.7-982.6-464.6z"/><path d="m4576 2560c-761.7-137.1-1439.5-644.9-1784.8-1332.9-408.8-820-347.8-1746.7 165-2526.2 132-200.6 441.8-510.3 644.9-647.4 213.3-142.2 538.2-294.5 782-360.5 167.6-48.2 264-55.9 642.3-55.9 411.3 0 462.1 5.1 670.3 71.1 1706.1 520.5 2356.1 2498.2 1287.2 3920-543.4 718.5-1510.7 1094.3-2406.9 931.8z"/><path d="m1123.2 483.2c-563.7-198-1023.2-365.6-1023.2-373.2 0-17.8 2081.9-743.9 2094.6-731.2 7.6 5.1-7.6 96.5-30.5 200.6-53.3 251.4-53.3 807.4 2.5 1058.7 48.2 223.4 48.2 208.2 10.2 205.7-17.8-0.1-492.6-162.6-1053.6-360.6z"/><path d="m7828.3 780.3c86.3-342.7 101.6-875.9 33-1203.4-20.3-104.1-35.6-192.9-33-195.5 10.1-10.2 2071.7 715.9 2071.7 728.6 0 7.6-454.5 172.6-1010.5 365.6-553.5 193-1023.2 358-1043.5 365.6-27.9 10.2-30.4-2.5-17.7-60.9z"/><path d="m2009.2-2345.1c-266.6-556-482.4-1013-477.3-1015.5 2.5-5.1 365.6 165 804.8 375.7s893.7 429.1 1010.5 482.4l210.7 99-160 106.6c-215.8 139.6-672.8 601.7-794.7 802.3-55.9 86.3-101.6 157.4-104.1 157.4-2.4 0.1-223.3-454.4-489.9-1007.9z"/><path d="m7376.4-1563.1c-144.7-215.8-566.2-624.5-761.7-741.3-76.2-48.3-142.2-93.9-142.2-101.6 0-12.7 1957.5-962.2 1987.9-962.2 7.6 0-200.6 444.3-462.1 990.2-258.9 543.3-479.8 990.2-487.4 990.2-7.6-0.1-68.5-78.8-134.5-175.3z"/><path d="m4263.7-2703c0-35.6 723.6-2087 736.3-2087 15.2 0 738.8 2061.6 728.7 2071.7-2.5 5.1-109.2-10.1-233.6-33-274.2-45.7-888.6-33-1096.8 25.4-73.6 22.9-134.6 30.5-134.6 22.9z"/></g></g>
</svg>
