<?xml version="1.0" encoding="UTF-8"?>
<svg width="460" height="220" version="1.1" viewBox="398 242 460 220" xmlns="http://www.w3.org/2000/svg" xmlns:cc="http://creativecommons.org/ns#" xmlns:dc="http://purl.org/dc/elements/1.1/" xmlns:rdf="http://www.w3.org/1999/02/22-rdf-syntax-ns#">
<metadata>
<rdf:RDF>
<cc:Work rdf:about="">
<dc:format>image/svg+xml</dc:format>
<dc:type rdf:resource="http://purl.org/dc/dcmitype/StillImage"/>
<dc:title/>
</cc:Work>
</rdf:RDF>
</metadata>
<g transform="translate(-.129 1.667)">
<g>
<rect x="494.47" y="243.41" width="230.19" height="215.92" rx="0" ry="0" fill="#81f2ff" stroke="#000" stroke-width="2"/>
<text x="609.56598" y="355.272" fill="#000000" font-family="sans-serif" font-size="12.8px" text-anchor="middle">
<tspan x="609.56598" y="355.272"/>
</text>
</g>
<g>
<rect x="518.73" y="281.13" width="130.25" height="48.004" rx="0" ry="0" fill="#dc81ff" stroke="#000" stroke-width="2"/>
<text x="583.85101" y="301.03101" fill="#000000" font-family="sans-serif" font-size="12.802px" text-anchor="middle">
<tspan x="583.85101" y="301.03101">2D/3D Object and</tspan>
<tspan x="583.85101" y="317.03299">Texture List</tspan>
</text>
</g>
<g>
<rect x="635.01" y="351.02" width="76.55" height="34" rx="0" ry="0" fill="#ff819c" stroke="#000" stroke-width="2"/>
<text x="673.28601" y="371.923" fill="#000000" font-family="sans-serif" font-size="12.8px" text-anchor="middle">
<tspan x="673.28601" y="371.923">Renderer</tspan>
</text>
</g>
<g>
<rect x="507.38" y="399.58" width="157.55" height="46.004" rx="0" ry="0" fill="#81ff86" stroke="#000" stroke-width="2"/>
<text x="586.15698" y="418.47699" fill="#000000" font-family="sans-serif" font-size="12.802px" text-anchor="middle">
<tspan x="586.15698" y="418.47699">World Model</tspan>
<tspan x="586.15698" y="434.479">(camera, context size)</tspan>
</text>
</g>
<g>
<rect x="745.68" y="304.25" width="110.35" height="34.002" rx="0" ry="0" fill="#ffd281" stroke="#000" stroke-width="2"/>
<text x="800.85303" y="325.14801" fill="#000000" font-family="sans-serif" font-size="12.802px" text-anchor="middle">
<tspan x="800.85303" y="325.14801">GPU Resources</tspan>
</text>
</g>
<g>
<rect x="399.13" y="341.4" width="76.25" height="34" rx="0" ry="0" fill="#8681ff" stroke="#000" stroke-width="2"/>
<text x="437.254" y="362.298" fill="#000000" font-family="sans-serif" font-size="12.8px" text-anchor="middle">
<tspan x="437.254" y="362.298">User App</tspan>
</text>
</g>
<g>
<rect x="749.84" y="374.98" width="102.56" height="46" rx="0" ry="0" fill="#ebff81" stroke="#000" stroke-width="2"/>
<text x="801.11798" y="393.88" fill="#000000" font-family="sans-serif" font-size="12.8px" text-anchor="middle">
<tspan x="801.11798" y="393.88">Shader</tspan>
<tspan x="801.11798" y="409.88">Programs</tspan>
</text>
</g>
<text x="583.47803" y="260.806" fill="#000000" font-family="sans-serif" font-size="12.8px">
<tspan x="583.47803" y="260.806">Context</tspan>
</text>
<g stroke="#000" stroke-width="2">
<line x1="437.25" x2="509.83" y1="341.4" y2="309.09" fill="none"/>
<polygon points="516.68 306.04 509.58 314.68 509.83 309.09 505.51 305.54" fill-rule="evenodd"/>
</g>
<g stroke="#000" stroke-width="2">
<line x1="437.25" x2="499.3" y1="375.4" y2="417.14" fill="none"/>
<polygon points="505.53 421.33 494.44 419.9 499.3 417.14 500.02 411.6" fill-rule="evenodd"/>
</g>
<g stroke="#000" stroke-width="2">
<line x1="648.98" x2="736.08" y1="305.13" y2="319.65" fill="none"/>
<polygon points="743.47 320.88 732.79 324.17 736.08 319.65 734.43 314.3" fill-rule="evenodd"/>
</g>
<g stroke="#000" stroke-width="2">
<line x1="583.85" x2="627.26" y1="329.14" y2="362.13" fill="none"/>
<polygon points="633.23 366.67 622.24 364.6 627.26 362.13 628.3 356.64" fill-rule="evenodd"/>
</g>
<g stroke="#000" stroke-width="2">
<line x1="586.16" x2="626.83" y1="399.58" y2="373.31" fill="none"/>
<polygon points="633.13 369.24 627.44 378.86 626.83 373.31 622.02 370.46" fill-rule="evenodd"/>
</g>
<g stroke="#000" stroke-width="2">
<line x1="800.85" x2="801.05" y1="338.25" y2="365.24" fill="none"/>
<polygon points="801.1 372.74 796.03 362.78 801.05 365.24 806.03 362.71" fill-rule="evenodd"/>
</g>
<g stroke="#000" stroke-width="2">
<line x1="749.84" x2="719.23" y1="397.98" y2="374.02" fill="none"/>
<polygon points="713.32 369.4 724.28 371.63 719.23 374.02 718.12 379.5" fill-rule="evenodd"/>
</g>
</g>
</svg>
