<?xml version="1.0" encoding="UTF-8"?>
<svg version="1.1" width="75" height="75" viewBox="0 0 75 75" xml:space="preserve" xmlns="http://www.w3.org/2000/svg" xmlns:cc="http://creativecommons.org/ns#" xmlns:dc="http://purl.org/dc/elements/1.1/" xmlns:rdf="http://www.w3.org/1999/02/22-rdf-syntax-ns#"><metadata><rdf:RDF><cc:Work rdf:about=""><dc:format>image/svg+xml</dc:format><dc:type rdf:resource="http://purl.org/dc/dcmitype/StillImage"/><dc:title/></cc:Work></rdf:RDF></metadata>
<path d="m43.681 13.368c0-3.2133-2.7678-5.8179-6.1818-5.8179s-6.1818 2.6047-6.1818 5.8179c0 2.153 1.2438 4.0316 3.0909 5.0378v10.477h6.1818v-10.477c1.8472-1.0061 3.0908-2.8848 3.0908-5.0378z" fill="#b693ef"/>
<path d="m37.5 7.55v21.333h3.0909v-10.477c1.8472-1.0061 3.0909-2.8845 3.0909-5.0378-1.32e-4 -3.2133-2.7679-5.8179-6.1819-5.8179z" fill="#7a5ab0"/>
<rect x="3.5" y="34.7" width="32.969" height="15.514" fill="#b693ef"/>
<rect x="38.531" y="34.7" width="32.969" height="15.514" fill="#7a5ab0"/>
<rect x="28.227" y="50.216" width="18.546" height="15.514" fill="#b693ef"/>
<rect x="37.5" y="50.216" width="9.2727" height="15.514" fill="#7a5ab0"/>
<rect x="9.6818" y="25.004" width="55.636" height="34.907" fill="#daccf9"/>
<rect x="37.5" y="25.004" width="27.819" height="34.907" fill="#b693ef"/>
<path d="m29.258 38.58c0 2.1422-1.8453 3.8786-4.1212 3.8786s-4.1212-1.7364-4.1212-3.8786c0-2.1422 1.8453-3.8786 4.1212-3.8786 2.276 0 4.1212 1.7364 4.1212 3.8786z" fill="#523c76"/>
<path d="m53.985 38.58c0 2.1422-1.8453 3.8786-4.1212 3.8786-2.276 0-4.1212-1.7364-4.1212-3.8786 0-2.1422 1.8453-3.8786 4.1212-3.8786s4.1212 1.7364 4.1212 3.8786z" fill="#2a1e3b"/>
<path d="m28.227 48.276c0 4.8196 4.1515 8.7269 9.2727 8.7269 5.121 0 9.2727-3.9074 9.2727-8.7269h-18.546z" fill="#523c76"/>
<path d="m37.5 48.276v8.7269c5.121 0 9.2727-3.9074 9.2727-8.7269z" fill="#2a1e3b"/>
</svg>
