<?xml version="1.0" encoding="UTF-8"?>
<svg width="200" height="140" fill-rule="evenodd" stroke-linejoin="round" stroke-width="28.222" preserveAspectRatio="xMidYMid" version="1.2" viewBox="0 0 4200 2940" xml:space="preserve" xmlns="http://www.w3.org/2000/svg" xmlns:cc="http://creativecommons.org/ns#" xmlns:dc="http://purl.org/dc/elements/1.1/" xmlns:ooo="http://xml.openoffice.org/svg/export" xmlns:rdf="http://www.w3.org/1999/02/22-rdf-syntax-ns#"><metadata><rdf:RDF><cc:Work rdf:about=""><dc:format>image/svg+xml</dc:format><dc:type rdf:resource="http://purl.org/dc/dcmitype/StillImage"/><dc:title/></cc:Work></rdf:RDF></metadata>
 <defs class="ClipPathGroup">
  <clipPath id="a">
   <rect width="10160" height="10160"/>
  </clipPath>
 </defs>
 <defs class="TextShapeIndex">
 </defs>
 <defs class="EmbeddedBulletChars">
 </defs>
 <g transform="translate(0 -6614.1)">
  <g class="Master_Slide">
  </g>
 </g>
 <g class="SlideGroup" transform="translate(-3319.4 -3821.8)">
    <g class="Slide" clip-path="url(#a)">
     <g class="Page">
      <g class="com.sun.star.drawing.CustomShape">
        <rect class="BoundingBox" x="4683" y="3920" width="2795" height="2106" fill="none"/>
        <path d="m6080 6025h-1397v-2105h2794v2105z" fill="#ccc"/>
      </g>
      <g class="com.sun.star.drawing.CustomShape">
        <rect class="BoundingBox" x="3413" y="5063" width="1526" height="1653" fill="none"/>
        <path d="m3413 6714v-1270l381-381h1143v1270l-381 381zm0-1651zm1525 1652z" fill="#826aaf"/>
        <path d="m3413 5444 381-381h1143l-381 381zm0-381zm1525 1652z" fill="#9883bf"/>
        <path d="m4556 6714v-1270l381-381v1270zm-1143-1651zm1525 1652z" fill="#68558c"/>
      </g>
      <g class="com.sun.star.drawing.CustomShape">
        <rect class="BoundingBox" x="5317" y="4429" width="1144" height="1271" fill="none"/>
        <path d="m5889 5699h-572v-1270h1143v1270z" fill="#826aaf"/>
      </g>
      <g class="com.sun.star.drawing.CustomShape">
        <rect class="BoundingBox" x="6461" y="4429" width="509" height="1271" fill="none"/>
        <path d="m6715 5699h-254v-1270h508v1270z" fill="#6e5a95"/>
      </g>
      <g class="com.sun.star.drawing.LineShape">
       <g fill="none">
        <rect class="BoundingBox" x="3780" y="4415" width="1553" height="664"/>
        <path d="m3794 5064 47-20" stroke="#000" stroke-linejoin="round" stroke-width="28"/>
        <path d="m3888 5025 47-20" stroke="#000" stroke-linejoin="round" stroke-width="28"/>
        <path d="m3982 4986 47-20" stroke="#000" stroke-linejoin="round" stroke-width="28"/>
        <path d="m4076 4946 48-19" stroke="#000" stroke-linejoin="round" stroke-width="28"/>
        <path d="m4171 4907 47-20" stroke="#000" stroke-linejoin="round" stroke-width="28"/>
        <path d="m4265 4868 47-20" stroke="#000" stroke-linejoin="round" stroke-width="28"/>
        <path d="m4359 4829 47-20" stroke="#000" stroke-linejoin="round" stroke-width="28"/>
        <path d="m4453 4789 47-19" stroke="#000" stroke-linejoin="round" stroke-width="28"/>
        <path d="m4547 4750 47-19" stroke="#000" stroke-linejoin="round" stroke-width="28"/>
        <path d="m4641 4711 47-20" stroke="#000" stroke-linejoin="round" stroke-width="28"/>
        <path d="m4736 4672 47-20" stroke="#000" stroke-linejoin="round" stroke-width="28"/>
        <path d="m4830 4632 47-19" stroke="#000" stroke-linejoin="round" stroke-width="28"/>
        <path d="m4924 4593 47-19" stroke="#000" stroke-linejoin="round" stroke-width="28"/>
        <path d="m5018 4554 47-20" stroke="#000" stroke-linejoin="round" stroke-width="28"/>
        <path d="m5112 4515 47-20" stroke="#000" stroke-linejoin="round" stroke-width="28"/>
        <path d="m5206 4476 47-20" stroke="#000" stroke-linejoin="round" stroke-width="28"/>
        <path d="m5300 4436 18-7" stroke="#000" stroke-linejoin="round" stroke-width="28"/>
       </g>
      </g>
      <g class="com.sun.star.drawing.LineShape">
       <g fill="none">
        <rect class="BoundingBox" x="4923" y="4415" width="1553" height="664"/>
        <path d="m4937 5064 47-20" stroke="#000" stroke-linejoin="round" stroke-width="28"/>
        <path d="m5031 5025 47-20" stroke="#000" stroke-linejoin="round" stroke-width="28"/>
        <path d="m5125 4986 47-20" stroke="#000" stroke-linejoin="round" stroke-width="28"/>
        <path d="m5219 4946 48-19" stroke="#000" stroke-linejoin="round" stroke-width="28"/>
        <path d="m5314 4907 47-20" stroke="#000" stroke-linejoin="round" stroke-width="28"/>
        <path d="m5408 4868 47-20" stroke="#000" stroke-linejoin="round" stroke-width="28"/>
        <path d="m5502 4829 47-20" stroke="#000" stroke-linejoin="round" stroke-width="28"/>
        <path d="m5596 4789 47-19" stroke="#000" stroke-linejoin="round" stroke-width="28"/>
        <path d="m5690 4750 47-19" stroke="#000" stroke-linejoin="round" stroke-width="28"/>
        <path d="m5784 4711 47-20" stroke="#000" stroke-linejoin="round" stroke-width="28"/>
        <path d="m5879 4672 47-20" stroke="#000" stroke-linejoin="round" stroke-width="28"/>
        <path d="m5973 4632 47-19" stroke="#000" stroke-linejoin="round" stroke-width="28"/>
        <path d="m6067 4593 47-19" stroke="#000" stroke-linejoin="round" stroke-width="28"/>
        <path d="m6161 4554 47-20" stroke="#000" stroke-linejoin="round" stroke-width="28"/>
        <path d="m6255 4515 47-20" stroke="#000" stroke-linejoin="round" stroke-width="28"/>
        <path d="m6349 4476 47-20" stroke="#000" stroke-linejoin="round" stroke-width="28"/>
        <path d="m6443 4436 18-7" stroke="#000" stroke-linejoin="round" stroke-width="28"/>
       </g>
      </g>
      <g class="com.sun.star.drawing.LineShape">
       <g fill="none">
        <rect class="BoundingBox" x="4542" y="4415" width="2442" height="1045"/>
        <path d="m4556 5445 47-20" stroke="#000" stroke-linejoin="round" stroke-width="28"/>
        <path d="m4650 5405 47-19" stroke="#000" stroke-linejoin="round" stroke-width="28"/>
        <path d="m4744 5366 47-20" stroke="#000" stroke-linejoin="round" stroke-width="28"/>
        <path d="m4838 5326 47-20" stroke="#000" stroke-linejoin="round" stroke-width="28"/>
        <path d="m4932 5287 47-20" stroke="#000" stroke-linejoin="round" stroke-width="28"/>
        <path d="m5026 5247 47-20" stroke="#000" stroke-linejoin="round" stroke-width="28"/>
        <path d="m5120 5208 47-20" stroke="#000" stroke-linejoin="round" stroke-width="28"/>
        <path d="m5214 5168 47-20" stroke="#000" stroke-linejoin="round" stroke-width="28"/>
        <path d="m5308 5128 47-19" stroke="#000" stroke-linejoin="round" stroke-width="28"/>
        <path d="m5402 5089 47-20" stroke="#000" stroke-linejoin="round" stroke-width="28"/>
        <path d="m5496 5049 47-20" stroke="#000" stroke-linejoin="round" stroke-width="28"/>
        <path d="m5590 5010 47-20" stroke="#000" stroke-linejoin="round" stroke-width="28"/>
        <path d="m5684 4970 47-20" stroke="#000" stroke-linejoin="round" stroke-width="28"/>
        <path d="m5778 4930 47-19" stroke="#000" stroke-linejoin="round" stroke-width="28"/>
        <path d="m5872 4891 47-20" stroke="#000" stroke-linejoin="round" stroke-width="28"/>
        <path d="m5966 4851 47-20" stroke="#000" stroke-linejoin="round" stroke-width="28"/>
        <path d="m6060 4812 47-20" stroke="#000" stroke-linejoin="round" stroke-width="28"/>
        <path d="m6154 4772 47-20" stroke="#000" stroke-linejoin="round" stroke-width="28"/>
        <path d="m6248 4733 47-20" stroke="#000" stroke-linejoin="round" stroke-width="28"/>
        <path d="m6342 4693 47-20" stroke="#000" stroke-linejoin="round" stroke-width="28"/>
        <path d="m6436 4653 47-19" stroke="#000" stroke-linejoin="round" stroke-width="28"/>
        <path d="m6530 4614 47-20" stroke="#000" stroke-linejoin="round" stroke-width="28"/>
        <path d="m6624 4574 47-20" stroke="#000" stroke-linejoin="round" stroke-width="28"/>
        <path d="m6718 4535 47-20" stroke="#000" stroke-linejoin="round" stroke-width="28"/>
        <path d="m6812 4495 47-20" stroke="#000" stroke-linejoin="round" stroke-width="28"/>
        <path d="m6906 4455 47-19" stroke="#000" stroke-linejoin="round" stroke-width="28"/>
       </g>
      </g>
      <g class="com.sun.star.drawing.LineShape">
       <g fill="none">
        <rect class="BoundingBox" x="4923" y="5685" width="1553" height="664"/>
        <path d="m4937 6334 47-20" stroke="#000" stroke-linejoin="round" stroke-width="28"/>
        <path d="m5031 6295 47-20" stroke="#000" stroke-linejoin="round" stroke-width="28"/>
        <path d="m5125 6256 47-20" stroke="#000" stroke-linejoin="round" stroke-width="28"/>
        <path d="m5219 6216 48-19" stroke="#000" stroke-linejoin="round" stroke-width="28"/>
        <path d="m5314 6177 47-20" stroke="#000" stroke-linejoin="round" stroke-width="28"/>
        <path d="m5408 6138 47-20" stroke="#000" stroke-linejoin="round" stroke-width="28"/>
        <path d="m5502 6099 47-20" stroke="#000" stroke-linejoin="round" stroke-width="28"/>
        <path d="m5596 6059 47-19" stroke="#000" stroke-linejoin="round" stroke-width="28"/>
        <path d="m5690 6020 47-19" stroke="#000" stroke-linejoin="round" stroke-width="28"/>
        <path d="m5784 5981 47-20" stroke="#000" stroke-linejoin="round" stroke-width="28"/>
        <path d="m5879 5942 47-20" stroke="#000" stroke-linejoin="round" stroke-width="28"/>
        <path d="m5973 5902 47-19" stroke="#000" stroke-linejoin="round" stroke-width="28"/>
        <path d="m6067 5863 47-19" stroke="#000" stroke-linejoin="round" stroke-width="28"/>
        <path d="m6161 5824 47-20" stroke="#000" stroke-linejoin="round" stroke-width="28"/>
        <path d="m6255 5785 47-20" stroke="#000" stroke-linejoin="round" stroke-width="28"/>
        <path d="m6349 5746 47-20" stroke="#000" stroke-linejoin="round" stroke-width="28"/>
        <path d="m6443 5706 18-7" stroke="#000" stroke-linejoin="round" stroke-width="28"/>
       </g>
      </g>
      <g class="com.sun.star.drawing.LineShape">
       <g fill="none">
        <rect class="BoundingBox" x="4542" y="5685" width="2442" height="1045"/>
        <path d="m4556 6715 47-20" stroke="#000" stroke-linejoin="round" stroke-width="28"/>
        <path d="m4650 6675 47-19" stroke="#000" stroke-linejoin="round" stroke-width="28"/>
        <path d="m4744 6636 47-20" stroke="#000" stroke-linejoin="round" stroke-width="28"/>
        <path d="m4838 6596 47-20" stroke="#000" stroke-linejoin="round" stroke-width="28"/>
        <path d="m4932 6557 47-20" stroke="#000" stroke-linejoin="round" stroke-width="28"/>
        <path d="m5026 6517 47-20" stroke="#000" stroke-linejoin="round" stroke-width="28"/>
        <path d="m5120 6478 47-20" stroke="#000" stroke-linejoin="round" stroke-width="28"/>
        <path d="m5214 6438 47-20" stroke="#000" stroke-linejoin="round" stroke-width="28"/>
        <path d="m5308 6398 47-19" stroke="#000" stroke-linejoin="round" stroke-width="28"/>
        <path d="m5402 6359 47-20" stroke="#000" stroke-linejoin="round" stroke-width="28"/>
        <path d="m5496 6319 47-20" stroke="#000" stroke-linejoin="round" stroke-width="28"/>
        <path d="m5590 6280 47-20" stroke="#000" stroke-linejoin="round" stroke-width="28"/>
        <path d="m5684 6240 47-20" stroke="#000" stroke-linejoin="round" stroke-width="28"/>
        <path d="m5778 6200 47-19" stroke="#000" stroke-linejoin="round" stroke-width="28"/>
        <path d="m5872 6161 47-20" stroke="#000" stroke-linejoin="round" stroke-width="28"/>
        <path d="m5966 6121 47-20" stroke="#000" stroke-linejoin="round" stroke-width="28"/>
        <path d="m6060 6082 47-20" stroke="#000" stroke-linejoin="round" stroke-width="28"/>
        <path d="m6154 6042 47-20" stroke="#000" stroke-linejoin="round" stroke-width="28"/>
        <path d="m6248 6003 47-20" stroke="#000" stroke-linejoin="round" stroke-width="28"/>
        <path d="m6342 5963 47-20" stroke="#000" stroke-linejoin="round" stroke-width="28"/>
        <path d="m6436 5923 47-19" stroke="#000" stroke-linejoin="round" stroke-width="28"/>
        <path d="m6530 5884 47-20" stroke="#000" stroke-linejoin="round" stroke-width="28"/>
        <path d="m6624 5844 47-20" stroke="#000" stroke-linejoin="round" stroke-width="28"/>
        <path d="m6718 5805 47-20" stroke="#000" stroke-linejoin="round" stroke-width="28"/>
        <path d="m6812 5765 47-20" stroke="#000" stroke-linejoin="round" stroke-width="28"/>
        <path d="m6906 5725 47-19" stroke="#000" stroke-linejoin="round" stroke-width="28"/>
       </g>
      </g>
      <g class="com.sun.star.drawing.LineShape">
       <g fill="none">
        <rect class="BoundingBox" x="4923" y="5685" width="413" height="190"/>
        <path d="m4937 5859 47-19" stroke="#000" stroke-linejoin="round" stroke-width="28"/>
        <path d="m5031 5820 47-20" stroke="#000" stroke-linejoin="round" stroke-width="28"/>
        <path d="m5125 5781 47-20" stroke="#000" stroke-linejoin="round" stroke-width="28"/>
        <path d="m5219 5741 48-19" stroke="#000" stroke-linejoin="round" stroke-width="28"/>
        <path d="m5314 5702 7-3" stroke="#000" stroke-linejoin="round" stroke-width="28"/>
       </g>
      </g>
     </g>
    </g>
 </g>
</svg>
