<?xml version="1.0" encoding="UTF-8"?>
<svg enable-background="new 0 0 415 415" version="1.1" viewBox="0 0 415 415" xml:space="preserve" xmlns="http://www.w3.org/2000/svg">
	<path d="M292.5,295v-32.551l80,32.953V134.599l-80,32.953V135h-0.052c18.233-13.694,30.052-35.492,30.052-60   c0-41.355-33.645-75-75-75c-27.764,0-52.034,15.176-65,37.656C169.534,15.176,145.264,0,117.5,0c-41.355,0-75,33.645-75,75   c0,24.508,11.817,46.306,30.052,60H72.5v160h63.056L75.243,415h33.576L167.5,298.247V415h30V298.247L256.181,415h33.575   l-60.312-120H292.5z M228,225h-90v-30h90V225z"/>
</svg>
