<?xml version="1.0" encoding="UTF-8" standalone="no"?>
<!DOCTYPE svg PUBLIC "-//W3C//DTD SVG 1.1//EN"
 "http://www.w3.org/Graphics/SVG/1.1/DTD/svg11.dtd">
<!-- Generated by graphviz version 2.43.0 (0)
 -->
<!-- Title: rmg::internal::VBOLoad Pages: 1 -->
<svg width="242pt" height="84pt"
 viewBox="0.00 0.00 241.50 84.00" xmlns="http://www.w3.org/2000/svg" xmlns:xlink="http://www.w3.org/1999/xlink">
<g id="graph0" class="graph" transform="scale(1 1) rotate(0) translate(4 80)">
<title>rmg::internal::VBOLoad</title>
<polygon fill="white" stroke="transparent" points="-4,4 -4,-80 237.5,-80 237.5,4 -4,4"/>
<!-- Node1 -->
<g id="node1" class="node">
<title>Node1</title>
<g id="a_node1"><a xlink:title="Maintains the array of VBOs before context startup.">
<polygon fill="#bfbfbf" stroke="black" points="71.5,-0.5 71.5,-19.5 201.5,-19.5 201.5,-0.5 71.5,-0.5"/>
<text text-anchor="middle" x="136.5" y="-7.5" font-family="Helvetica,sans-Serif" font-size="10.00">rmg::internal::VBOLoad</text>
</a>
</g>
</g>
<!-- Node2 -->
<g id="node2" class="node">
<title>Node2</title>
<g id="a_node2"><a xlink:href="classrmg_1_1internal_1_1ContextLoad.html" target="_top" xlink:title="Maintains the data to be loaded into OpenGL context before startup.">
<polygon fill="white" stroke="black" points="0,-56.5 0,-75.5 147,-75.5 147,-56.5 0,-56.5"/>
<text text-anchor="middle" x="73.5" y="-63.5" font-family="Helvetica,sans-Serif" font-size="10.00">rmg::internal::ContextLoad</text>
</a>
</g>
</g>
<!-- Node2&#45;&gt;Node1 -->
<g id="edge1" class="edge">
<title>Node2&#45;&gt;Node1</title>
<path fill="none" stroke="midnightblue" d="M91.54,-49.54C102.77,-39.91 116.82,-27.87 126.19,-19.83"/>
<polygon fill="midnightblue" stroke="midnightblue" points="88.94,-47.16 83.62,-56.32 93.49,-52.47 88.94,-47.16"/>
</g>
<!-- Node3 -->
<g id="node3" class="node">
<title>Node3</title>
<g id="a_node3"><a xlink:href="classrmg_1_1Mesh.html" target="_top" xlink:title="Structural build of a 3D model consisting of polygons.">
<polygon fill="white" stroke="black" points="165.5,-56.5 165.5,-75.5 233.5,-75.5 233.5,-56.5 165.5,-56.5"/>
<text text-anchor="middle" x="199.5" y="-63.5" font-family="Helvetica,sans-Serif" font-size="10.00">rmg::Mesh</text>
</a>
</g>
</g>
<!-- Node3&#45;&gt;Node1 -->
<g id="edge2" class="edge">
<title>Node3&#45;&gt;Node1</title>
<path fill="none" stroke="midnightblue" d="M181.46,-49.54C170.23,-39.91 156.18,-27.87 146.81,-19.83"/>
<polygon fill="midnightblue" stroke="midnightblue" points="179.51,-52.47 189.38,-56.32 184.06,-47.16 179.51,-52.47"/>
</g>
</g>
</svg>
