<?xml version="1.0" encoding="UTF-8" standalone="no"?>
<!DOCTYPE svg PUBLIC "-//W3C//DTD SVG 1.1//EN"
 "http://www.w3.org/Graphics/SVG/1.1/DTD/svg11.dtd">
<!-- Generated by graphviz version 2.40.1 (20161225.0304)
 -->
<!-- Title: rmg::internal::ContextLoad Pages: 1 -->
<svg width="276pt" height="84pt"
 viewBox="0.00 0.00 276.00 84.00" xmlns="http://www.w3.org/2000/svg" xmlns:xlink="http://www.w3.org/1999/xlink">
<g id="graph0" class="graph" transform="scale(1 1) rotate(0) translate(4 80)">
<title>rmg::internal::ContextLoad</title>
<polygon fill="#ffffff" stroke="transparent" points="-4,4 -4,-80 272,-80 272,4 -4,4"/>
<!-- Node0 -->
<g id="node1" class="node">
<title>Node0</title>
<polygon fill="#bfbfbf" stroke="#000000" points="70.5,-56.5 70.5,-75.5 202.5,-75.5 202.5,-56.5 70.5,-56.5"/>
<text text-anchor="middle" x="136.5" y="-63.5" font-family="Helvetica,sans-Serif" font-size="10.00" fill="#000000">rmg::internal::ContextLoad</text>
</g>
<!-- Node1 -->
<g id="node2" class="node">
<title>Node1</title>
<g id="a_node2"><a xlink:href="classrmg_1_1internal_1_1TextureLoad.html" target="_top" xlink:title="Maintains the image data before context startup. ">
<polygon fill="#ffffff" stroke="#000000" points="0,-.5 0,-19.5 131,-19.5 131,-.5 0,-.5"/>
<text text-anchor="middle" x="65.5" y="-7.5" font-family="Helvetica,sans-Serif" font-size="10.00" fill="#000000">rmg::internal::TextureLoad</text>
</a>
</g>
</g>
<!-- Node0&#45;&gt;Node1 -->
<g id="edge1" class="edge">
<title>Node0&#45;&gt;Node1</title>
<path fill="none" stroke="#191970" d="M116.123,-49.928C103.7129,-40.1397 88.27,-27.9595 77.7255,-19.6427"/>
<polygon fill="#191970" stroke="#191970" points="114.1136,-52.8007 124.1327,-56.2455 118.4486,-47.3046 114.1136,-52.8007"/>
</g>
<!-- Node2 -->
<g id="node3" class="node">
<title>Node2</title>
<g id="a_node3"><a xlink:href="classrmg_1_1internal_1_1VBOLoad.html" target="_top" xlink:title="Maintains the array of VBOs before context startup. ">
<polygon fill="#ffffff" stroke="#000000" points="149,-.5 149,-19.5 268,-19.5 268,-.5 149,-.5"/>
<text text-anchor="middle" x="208.5" y="-7.5" font-family="Helvetica,sans-Serif" font-size="10.00" fill="#000000">rmg::internal::VBOLoad</text>
</a>
</g>
</g>
<!-- Node0&#45;&gt;Node2 -->
<g id="edge2" class="edge">
<title>Node0&#45;&gt;Node2</title>
<path fill="none" stroke="#191970" d="M157.164,-49.928C169.7489,-40.1397 185.4092,-27.9595 196.1023,-19.6427"/>
<polygon fill="#191970" stroke="#191970" points="154.7862,-47.3434 149.0414,-56.2455 159.0838,-52.8688 154.7862,-47.3434"/>
</g>
</g>
</svg>
