<?xml version="1.0" encoding="UTF-8" standalone="no"?>
<!DOCTYPE svg PUBLIC "-//W3C//DTD SVG 1.1//EN"
 "http://www.w3.org/Graphics/SVG/1.1/DTD/svg11.dtd">
<!-- Generated by graphviz version 2.43.0 (0)
 -->
<!-- Title: rmg::Object2D Pages: 1 -->
<svg width="186pt" height="140pt"
 viewBox="0.00 0.00 186.00 140.00" xmlns="http://www.w3.org/2000/svg" xmlns:xlink="http://www.w3.org/1999/xlink">
<g id="graph0" class="graph" transform="scale(1 1) rotate(0) translate(4 136)">
<title>rmg::Object2D</title>
<polygon fill="white" stroke="transparent" points="-4,4 -4,-136 182,-136 182,4 -4,4"/>
<!-- Node1 -->
<g id="node1" class="node">
<title>Node1</title>
<g id="a_node1"><a xlink:title="2D graphics displayed on top of the 3D graphics context">
<polygon fill="#bfbfbf" stroke="black" points="47.5,-56.5 47.5,-75.5 134.5,-75.5 134.5,-56.5 47.5,-56.5"/>
<text text-anchor="middle" x="91" y="-63.5" font-family="Helvetica,sans-Serif" font-size="10.00">rmg::Object2D</text>
</a>
</g>
</g>
<!-- Node3 -->
<g id="node3" class="node">
<title>Node3</title>
<g id="a_node3"><a xlink:href="classrmg_1_1Sprite2D.html" target="_top" xlink:title="2D sprite images for 2D games">
<polygon fill="white" stroke="black" points="0,-0.5 0,-19.5 84,-19.5 84,-0.5 0,-0.5"/>
<text text-anchor="middle" x="42" y="-7.5" font-family="Helvetica,sans-Serif" font-size="10.00">rmg::Sprite2D</text>
</a>
</g>
</g>
<!-- Node1&#45;&gt;Node3 -->
<g id="edge2" class="edge">
<title>Node1&#45;&gt;Node3</title>
<path fill="none" stroke="midnightblue" d="M75.97,-48.43C67.38,-38.97 56.96,-27.48 49.94,-19.75"/>
<polygon fill="midnightblue" stroke="midnightblue" points="73.6,-51.03 82.91,-56.08 78.78,-46.33 73.6,-51.03"/>
</g>
<!-- Node4 -->
<g id="node4" class="node">
<title>Node4</title>
<g id="a_node4"><a xlink:href="classrmg_1_1Text2D.html" target="_top" xlink:title="Renders text as an 2D object.">
<polygon fill="white" stroke="black" points="102,-0.5 102,-19.5 178,-19.5 178,-0.5 102,-0.5"/>
<text text-anchor="middle" x="140" y="-7.5" font-family="Helvetica,sans-Serif" font-size="10.00">rmg::Text2D</text>
</a>
</g>
</g>
<!-- Node1&#45;&gt;Node4 -->
<g id="edge3" class="edge">
<title>Node1&#45;&gt;Node4</title>
<path fill="none" stroke="midnightblue" d="M106.03,-48.43C114.62,-38.97 125.04,-27.48 132.06,-19.75"/>
<polygon fill="midnightblue" stroke="midnightblue" points="103.22,-46.33 99.09,-56.08 108.4,-51.03 103.22,-46.33"/>
</g>
<!-- Node2 -->
<g id="node2" class="node">
<title>Node2</title>
<g id="a_node2"><a xlink:href="classrmg_1_1Object.html" target="_top" xlink:title="A foundation of all RMG graphical object data structures.">
<polygon fill="white" stroke="black" points="54,-112.5 54,-131.5 128,-131.5 128,-112.5 54,-112.5"/>
<text text-anchor="middle" x="91" y="-119.5" font-family="Helvetica,sans-Serif" font-size="10.00">rmg::Object</text>
</a>
</g>
</g>
<!-- Node2&#45;&gt;Node1 -->
<g id="edge1" class="edge">
<title>Node2&#45;&gt;Node1</title>
<path fill="none" stroke="midnightblue" d="M91,-101.8C91,-92.91 91,-82.78 91,-75.75"/>
<polygon fill="midnightblue" stroke="midnightblue" points="87.5,-102.08 91,-112.08 94.5,-102.08 87.5,-102.08"/>
</g>
</g>
</svg>
