<?xml version="1.0" encoding="UTF-8" standalone="no"?>
<!DOCTYPE svg PUBLIC "-//W3C//DTD SVG 1.1//EN"
 "http://www.w3.org/Graphics/SVG/1.1/DTD/svg11.dtd">
<!-- Generated by graphviz version 2.43.0 (0)
 -->
<!-- Title: rmg::Object Pages: 1 -->
<svg width="506pt" height="140pt"
 viewBox="0.00 0.00 505.50 140.00" xmlns="http://www.w3.org/2000/svg" xmlns:xlink="http://www.w3.org/1999/xlink">
<g id="graph0" class="graph" transform="scale(1 1) rotate(0) translate(4 136)">
<title>rmg::Object</title>
<polygon fill="white" stroke="transparent" points="-4,4 -4,-136 501.5,-136 501.5,4 -4,4"/>
<!-- Node1 -->
<g id="node1" class="node">
<title>Node1</title>
<g id="a_node1"><a xlink:title="A foundation of all RMG graphical object data structures.">
<polygon fill="#bfbfbf" stroke="black" points="155,-112.5 155,-131.5 229,-131.5 229,-112.5 155,-112.5"/>
<text text-anchor="middle" x="192" y="-119.5" font-family="Helvetica,sans-Serif" font-size="10.00">rmg::Object</text>
</a>
</g>
</g>
<!-- Node2 -->
<g id="node2" class="node">
<title>Node2</title>
<g id="a_node2"><a xlink:href="classrmg_1_1Line3D.html" target="_top" xlink:title="Draws a line in 3D space.">
<polygon fill="white" stroke="black" points="2,-56.5 2,-75.5 78,-75.5 78,-56.5 2,-56.5"/>
<text text-anchor="middle" x="40" y="-63.5" font-family="Helvetica,sans-Serif" font-size="10.00">rmg::Line3D</text>
</a>
</g>
</g>
<!-- Node1&#45;&gt;Node2 -->
<g id="edge1" class="edge">
<title>Node1&#45;&gt;Node2</title>
<path fill="none" stroke="midnightblue" d="M158.33,-109.04C129.73,-98.88 89.39,-84.55 63.97,-75.52"/>
<polygon fill="midnightblue" stroke="midnightblue" points="157.32,-112.39 167.92,-112.44 159.66,-105.8 157.32,-112.39"/>
</g>
<!-- Node3 -->
<g id="node3" class="node">
<title>Node3</title>
<g id="a_node3"><a xlink:href="classrmg_1_1Object2D.html" target="_top" xlink:title="2D graphics displayed on top of the 3D graphics context">
<polygon fill="white" stroke="black" points="96.5,-56.5 96.5,-75.5 183.5,-75.5 183.5,-56.5 96.5,-56.5"/>
<text text-anchor="middle" x="140" y="-63.5" font-family="Helvetica,sans-Serif" font-size="10.00">rmg::Object2D</text>
</a>
</g>
</g>
<!-- Node1&#45;&gt;Node3 -->
<g id="edge2" class="edge">
<title>Node1&#45;&gt;Node3</title>
<path fill="none" stroke="midnightblue" d="M176.32,-104.72C167.16,-95.2 155.95,-83.56 148.43,-75.75"/>
<polygon fill="midnightblue" stroke="midnightblue" points="173.96,-107.31 183.41,-112.08 179,-102.45 173.96,-107.31"/>
</g>
<!-- Node6 -->
<g id="node6" class="node">
<title>Node6</title>
<g id="a_node6"><a xlink:href="classrmg_1_1Object3D.html" target="_top" xlink:title="3D object whose model and appearance can be controlled quickly">
<polygon fill="white" stroke="black" points="201.5,-56.5 201.5,-75.5 288.5,-75.5 288.5,-56.5 201.5,-56.5"/>
<text text-anchor="middle" x="245" y="-63.5" font-family="Helvetica,sans-Serif" font-size="10.00">rmg::Object3D</text>
</a>
</g>
</g>
<!-- Node1&#45;&gt;Node6 -->
<g id="edge5" class="edge">
<title>Node1&#45;&gt;Node6</title>
<path fill="none" stroke="midnightblue" d="M207.98,-104.72C217.32,-95.2 228.75,-83.56 236.41,-75.75"/>
<polygon fill="midnightblue" stroke="midnightblue" points="205.26,-102.49 200.75,-112.08 210.25,-107.4 205.26,-102.49"/>
</g>
<!-- Node10 -->
<g id="node10" class="node">
<title>Node10</title>
<g id="a_node10"><a xlink:href="classrmg_1_1Particle3D.html" target="_top" xlink:title="2D graphics displayed in terms of 3D space">
<polygon fill="white" stroke="black" points="307,-56.5 307,-75.5 399,-75.5 399,-56.5 307,-56.5"/>
<text text-anchor="middle" x="353" y="-63.5" font-family="Helvetica,sans-Serif" font-size="10.00">rmg::Particle3D</text>
</a>
</g>
</g>
<!-- Node1&#45;&gt;Node10 -->
<g id="edge9" class="edge">
<title>Node1&#45;&gt;Node10</title>
<path fill="none" stroke="midnightblue" d="M227.26,-109.17C257.58,-99 300.57,-84.59 327.61,-75.52"/>
<polygon fill="midnightblue" stroke="midnightblue" points="225.88,-105.95 217.51,-112.44 228.1,-112.58 225.88,-105.95"/>
</g>
<!-- Node4 -->
<g id="node4" class="node">
<title>Node4</title>
<g id="a_node4"><a xlink:href="classrmg_1_1Sprite2D.html" target="_top" xlink:title="2D sprite images for 2D games">
<polygon fill="white" stroke="black" points="0,-0.5 0,-19.5 84,-19.5 84,-0.5 0,-0.5"/>
<text text-anchor="middle" x="42" y="-7.5" font-family="Helvetica,sans-Serif" font-size="10.00">rmg::Sprite2D</text>
</a>
</g>
</g>
<!-- Node3&#45;&gt;Node4 -->
<g id="edge3" class="edge">
<title>Node3&#45;&gt;Node4</title>
<path fill="none" stroke="midnightblue" d="M115.41,-51.45C97.32,-41.48 73.27,-28.23 57.71,-19.65"/>
<polygon fill="midnightblue" stroke="midnightblue" points="113.81,-54.56 124.25,-56.32 117.19,-48.43 113.81,-54.56"/>
</g>
<!-- Node5 -->
<g id="node5" class="node">
<title>Node5</title>
<g id="a_node5"><a xlink:href="classrmg_1_1Text2D.html" target="_top" xlink:title="Renders text as an 2D object.">
<polygon fill="white" stroke="black" points="102,-0.5 102,-19.5 178,-19.5 178,-0.5 102,-0.5"/>
<text text-anchor="middle" x="140" y="-7.5" font-family="Helvetica,sans-Serif" font-size="10.00">rmg::Text2D</text>
</a>
</g>
</g>
<!-- Node3&#45;&gt;Node5 -->
<g id="edge4" class="edge">
<title>Node3&#45;&gt;Node5</title>
<path fill="none" stroke="midnightblue" d="M140,-45.8C140,-36.91 140,-26.78 140,-19.75"/>
<polygon fill="midnightblue" stroke="midnightblue" points="136.5,-46.08 140,-56.08 143.5,-46.08 136.5,-46.08"/>
</g>
<!-- Node7 -->
<g id="node7" class="node">
<title>Node7</title>
<g id="a_node7"><a xlink:href="classrmg_1_1Cube3D.html" target="_top" xlink:title="Visual 3D cube model.">
<polygon fill="white" stroke="black" points="196,-0.5 196,-19.5 276,-19.5 276,-0.5 196,-0.5"/>
<text text-anchor="middle" x="236" y="-7.5" font-family="Helvetica,sans-Serif" font-size="10.00">rmg::Cube3D</text>
</a>
</g>
</g>
<!-- Node6&#45;&gt;Node7 -->
<g id="edge6" class="edge">
<title>Node6&#45;&gt;Node7</title>
<path fill="none" stroke="midnightblue" d="M241.85,-46.1C240.36,-37.14 238.64,-26.86 237.46,-19.75"/>
<polygon fill="midnightblue" stroke="midnightblue" points="238.42,-46.79 243.51,-56.08 245.32,-45.64 238.42,-46.79"/>
</g>
<!-- Node8 -->
<g id="node8" class="node">
<title>Node8</title>
<g id="a_node8"><a xlink:href="classrmg_1_1Cylinder3D.html" target="_top" xlink:title="Visual cylinder model.">
<polygon fill="white" stroke="black" points="294,-0.5 294,-19.5 390,-19.5 390,-0.5 294,-0.5"/>
<text text-anchor="middle" x="342" y="-7.5" font-family="Helvetica,sans-Serif" font-size="10.00">rmg::Cylinder3D</text>
</a>
</g>
</g>
<!-- Node6&#45;&gt;Node8 -->
<g id="edge7" class="edge">
<title>Node6&#45;&gt;Node8</title>
<path fill="none" stroke="midnightblue" d="M269.34,-51.45C287.24,-41.48 311.05,-28.23 326.45,-19.65"/>
<polygon fill="midnightblue" stroke="midnightblue" points="267.62,-48.4 260.58,-56.32 271.02,-54.52 267.62,-48.4"/>
</g>
<!-- Node9 -->
<g id="node9" class="node">
<title>Node9</title>
<g id="a_node9"><a xlink:href="classrmg_1_1Sphere3D.html" target="_top" xlink:title="Visual sphere model.">
<polygon fill="white" stroke="black" points="408.5,-0.5 408.5,-19.5 497.5,-19.5 497.5,-0.5 408.5,-0.5"/>
<text text-anchor="middle" x="453" y="-7.5" font-family="Helvetica,sans-Serif" font-size="10.00">rmg::Sphere3D</text>
</a>
</g>
</g>
<!-- Node6&#45;&gt;Node9 -->
<g id="edge8" class="edge">
<title>Node6&#45;&gt;Node9</title>
<path fill="none" stroke="midnightblue" d="M287.78,-53.89C327.06,-43.7 384.43,-28.8 420.2,-19.52"/>
<polygon fill="midnightblue" stroke="midnightblue" points="286.76,-50.54 277.96,-56.44 288.52,-57.32 286.76,-50.54"/>
</g>
</g>
</svg>
