<?xml version="1.0" encoding="UTF-8" standalone="no"?>
<!DOCTYPE svg PUBLIC "-//W3C//DTD SVG 1.1//EN"
 "http://www.w3.org/Graphics/SVG/1.1/DTD/svg11.dtd">
<!-- Generated by graphviz version 2.43.0 (0)
 -->
<!-- Title: rmg::internal::ContextLoad Pages: 1 -->
<svg width="302pt" height="84pt"
 viewBox="0.00 0.00 301.50 84.00" xmlns="http://www.w3.org/2000/svg" xmlns:xlink="http://www.w3.org/1999/xlink">
<g id="graph0" class="graph" transform="scale(1 1) rotate(0) translate(4 80)">
<title>rmg::internal::ContextLoad</title>
<polygon fill="white" stroke="transparent" points="-4,4 -4,-80 297.5,-80 297.5,4 -4,4"/>
<!-- Node1 -->
<g id="node1" class="node">
<title>Node1</title>
<g id="a_node1"><a xlink:title="Maintains the data to be loaded into OpenGL context before startup.">
<polygon fill="#bfbfbf" stroke="black" points="77,-56.5 77,-75.5 224,-75.5 224,-56.5 77,-56.5"/>
<text text-anchor="middle" x="150.5" y="-63.5" font-family="Helvetica,sans-Serif" font-size="10.00">rmg::internal::ContextLoad</text>
</a>
</g>
</g>
<!-- Node2 -->
<g id="node2" class="node">
<title>Node2</title>
<g id="a_node2"><a xlink:href="classrmg_1_1internal_1_1TextureLoad.html" target="_top" xlink:title="Maintains the image data before context startup.">
<polygon fill="white" stroke="black" points="0,-0.5 0,-19.5 145,-19.5 145,-0.5 0,-0.5"/>
<text text-anchor="middle" x="72.5" y="-7.5" font-family="Helvetica,sans-Serif" font-size="10.00">rmg::internal::TextureLoad</text>
</a>
</g>
</g>
<!-- Node1&#45;&gt;Node2 -->
<g id="edge1" class="edge">
<title>Node1&#45;&gt;Node2</title>
<path fill="none" stroke="midnightblue" d="M129.73,-50.62C115.48,-40.76 97.04,-27.99 85,-19.65"/>
<polygon fill="midnightblue" stroke="midnightblue" points="127.75,-53.51 137.97,-56.32 131.74,-47.75 127.75,-53.51"/>
</g>
<!-- Node3 -->
<g id="node3" class="node">
<title>Node3</title>
<g id="a_node3"><a xlink:href="classrmg_1_1internal_1_1VBOLoad.html" target="_top" xlink:title="Maintains the array of VBOs before context startup.">
<polygon fill="white" stroke="black" points="163.5,-0.5 163.5,-19.5 293.5,-19.5 293.5,-0.5 163.5,-0.5"/>
<text text-anchor="middle" x="228.5" y="-7.5" font-family="Helvetica,sans-Serif" font-size="10.00">rmg::internal::VBOLoad</text>
</a>
</g>
</g>
<!-- Node1&#45;&gt;Node3 -->
<g id="edge2" class="edge">
<title>Node1&#45;&gt;Node3</title>
<path fill="none" stroke="midnightblue" d="M171.27,-50.62C185.52,-40.76 203.96,-27.99 216,-19.65"/>
<polygon fill="midnightblue" stroke="midnightblue" points="169.26,-47.75 163.03,-56.32 173.25,-53.51 169.26,-47.75"/>
</g>
</g>
</svg>
