<?xml version="1.0" encoding="UTF-8" standalone="no"?>
<!DOCTYPE svg PUBLIC "-//W3C//DTD SVG 1.1//EN"
 "http://www.w3.org/Graphics/SVG/1.1/DTD/svg11.dtd">
<!-- Generated by graphviz version 2.40.1 (20161225.0304)
 -->
<!-- Title: rmg::Object3D Pages: 1 -->
<svg width="386pt" height="140pt"
 viewBox="0.00 0.00 386.00 140.00" xmlns="http://www.w3.org/2000/svg" xmlns:xlink="http://www.w3.org/1999/xlink">
<g id="graph0" class="graph" transform="scale(1 1) rotate(0) translate(4 136)">
<title>rmg::Object3D</title>
<polygon fill="#ffffff" stroke="transparent" points="-4,4 -4,-136 382,-136 382,4 -4,4"/>
<!-- Node0 -->
<g id="node1" class="node">
<title>Node0</title>
<polygon fill="#bfbfbf" stroke="#000000" points="146.5,-56.5 146.5,-75.5 226.5,-75.5 226.5,-56.5 146.5,-56.5"/>
<text text-anchor="middle" x="186.5" y="-63.5" font-family="Helvetica,sans-Serif" font-size="10.00" fill="#000000">rmg::Object3D</text>
</g>
<!-- Node2 -->
<g id="node3" class="node">
<title>Node2</title>
<g id="a_node3"><a xlink:href="classrmg_1_1Cube3D.html" target="_top" xlink:title="Visual 3D cube model. ">
<polygon fill="#ffffff" stroke="#000000" points="0,-.5 0,-19.5 75,-19.5 75,-.5 0,-.5"/>
<text text-anchor="middle" x="37.5" y="-7.5" font-family="Helvetica,sans-Serif" font-size="10.00" fill="#000000">rmg::Cube3D</text>
</a>
</g>
</g>
<!-- Node0&#45;&gt;Node2 -->
<g id="edge2" class="edge">
<title>Node0&#45;&gt;Node2</title>
<path fill="none" stroke="#191970" d="M151.3488,-52.7888C124.1432,-42.5639 87.1191,-28.6488 62.7798,-19.5011"/>
<polygon fill="#191970" stroke="#191970" points="150.2939,-56.1313 160.886,-56.3733 152.7566,-49.5788 150.2939,-56.1313"/>
</g>
<!-- Node3 -->
<g id="node4" class="node">
<title>Node3</title>
<g id="a_node4"><a xlink:href="classrmg_1_1Cylinder3D.html" target="_top" xlink:title="Visual cylinder model. ">
<polygon fill="#ffffff" stroke="#000000" points="92.5,-.5 92.5,-19.5 180.5,-19.5 180.5,-.5 92.5,-.5"/>
<text text-anchor="middle" x="136.5" y="-7.5" font-family="Helvetica,sans-Serif" font-size="10.00" fill="#000000">rmg::Cylinder3D</text>
</a>
</g>
</g>
<!-- Node0&#45;&gt;Node3 -->
<g id="edge3" class="edge">
<title>Node0&#45;&gt;Node3</title>
<path fill="none" stroke="#191970" d="M170.8753,-48.5004C162.3727,-38.9775 152.1782,-27.5596 145.1095,-19.6427"/>
<polygon fill="#191970" stroke="#191970" points="168.5197,-51.1172 177.7907,-56.2455 173.7413,-46.4551 168.5197,-51.1172"/>
</g>
<!-- Node4 -->
<g id="node5" class="node">
<title>Node4</title>
<g id="a_node5"><a xlink:href="classrmg_1_1Model3D.html" target="_top" xlink:title="3D object loaded from file other than basic geometries ">
<polygon fill="#ffffff" stroke="#000000" points="198.5,-.5 198.5,-19.5 276.5,-19.5 276.5,-.5 198.5,-.5"/>
<text text-anchor="middle" x="237.5" y="-7.5" font-family="Helvetica,sans-Serif" font-size="10.00" fill="#000000">rmg::Model3D</text>
</a>
</g>
</g>
<!-- Node0&#45;&gt;Node4 -->
<g id="edge4" class="edge">
<title>Node0&#45;&gt;Node4</title>
<path fill="none" stroke="#191970" d="M202.1749,-48.7884C210.8994,-39.2085 221.4354,-27.6396 228.7183,-19.6427"/>
<polygon fill="#191970" stroke="#191970" points="199.5291,-46.4954 195.3835,-56.2455 204.7046,-51.2088 199.5291,-46.4954"/>
</g>
<!-- Node5 -->
<g id="node6" class="node">
<title>Node5</title>
<g id="a_node6"><a xlink:href="classrmg_1_1Sphere3D.html" target="_top" xlink:title="Visual sphere model. ">
<polygon fill="#ffffff" stroke="#000000" points="295,-.5 295,-19.5 378,-19.5 378,-.5 295,-.5"/>
<text text-anchor="middle" x="336.5" y="-7.5" font-family="Helvetica,sans-Serif" font-size="10.00" fill="#000000">rmg::Sphere3D</text>
</a>
</g>
</g>
<!-- Node0&#45;&gt;Node5 -->
<g id="edge5" class="edge">
<title>Node0&#45;&gt;Node5</title>
<path fill="none" stroke="#191970" d="M221.8871,-52.7888C249.2753,-42.5639 286.5479,-28.6488 311.0506,-19.5011"/>
<polygon fill="#191970" stroke="#191970" points="220.4302,-49.5967 212.2859,-56.3733 222.8785,-56.1546 220.4302,-49.5967"/>
</g>
<!-- Node1 -->
<g id="node2" class="node">
<title>Node1</title>
<g id="a_node2"><a xlink:href="classrmg_1_1Object.html" target="_top" xlink:title="A foundation of all RMG graphical object data structures. ">
<polygon fill="#ffffff" stroke="#000000" points="152.5,-112.5 152.5,-131.5 220.5,-131.5 220.5,-112.5 152.5,-112.5"/>
<text text-anchor="middle" x="186.5" y="-119.5" font-family="Helvetica,sans-Serif" font-size="10.00" fill="#000000">rmg::Object</text>
</a>
</g>
</g>
<!-- Node1&#45;&gt;Node0 -->
<g id="edge1" class="edge">
<title>Node1&#45;&gt;Node0</title>
<path fill="none" stroke="#191970" d="M186.5,-102.1575C186.5,-93.155 186.5,-82.9199 186.5,-75.6427"/>
<polygon fill="#191970" stroke="#191970" points="183.0001,-102.2455 186.5,-112.2455 190.0001,-102.2456 183.0001,-102.2455"/>
</g>
</g>
</svg>
