<?xml version="1.0" encoding="UTF-8" standalone="no"?>
<!DOCTYPE svg PUBLIC "-//W3C//DTD SVG 1.1//EN"
 "http://www.w3.org/Graphics/SVG/1.1/DTD/svg11.dtd">
<!-- Generated by graphviz version 2.40.1 (20161225.0304)
 -->
<!-- Title: rmg::Object2D Pages: 1 -->
<svg width="174pt" height="140pt"
 viewBox="0.00 0.00 174.00 140.00" xmlns="http://www.w3.org/2000/svg" xmlns:xlink="http://www.w3.org/1999/xlink">
<g id="graph0" class="graph" transform="scale(1 1) rotate(0) translate(4 136)">
<title>rmg::Object2D</title>
<polygon fill="#ffffff" stroke="transparent" points="-4,4 -4,-136 170,-136 170,4 -4,4"/>
<!-- Node0 -->
<g id="node1" class="node">
<title>Node0</title>
<polygon fill="#bfbfbf" stroke="#000000" points="44.5,-56.5 44.5,-75.5 124.5,-75.5 124.5,-56.5 44.5,-56.5"/>
<text text-anchor="middle" x="84.5" y="-63.5" font-family="Helvetica,sans-Serif" font-size="10.00" fill="#000000">rmg::Object2D</text>
</g>
<!-- Node2 -->
<g id="node3" class="node">
<title>Node2</title>
<g id="a_node3"><a xlink:href="classrmg_1_1Sprite2D.html" target="_top" xlink:title="2D sprite images for 2D games ">
<polygon fill="#ffffff" stroke="#000000" points="0,-.5 0,-19.5 77,-19.5 77,-.5 0,-.5"/>
<text text-anchor="middle" x="38.5" y="-7.5" font-family="Helvetica,sans-Serif" font-size="10.00" fill="#000000">rmg::Sprite2D</text>
</a>
</g>
</g>
<!-- Node0&#45;&gt;Node2 -->
<g id="edge2" class="edge">
<title>Node0&#45;&gt;Node2</title>
<path fill="none" stroke="#191970" d="M70.1253,-48.5004C62.3029,-38.9775 52.924,-27.5596 46.4208,-19.6427"/>
<polygon fill="#191970" stroke="#191970" points="67.4354,-50.7399 76.4874,-56.2455 72.8445,-46.2967 67.4354,-50.7399"/>
</g>
<!-- Node3 -->
<g id="node4" class="node">
<title>Node3</title>
<g id="a_node4"><a xlink:href="classrmg_1_1Text2D.html" target="_top" xlink:title="Renders text as an 2D object. ">
<polygon fill="#ffffff" stroke="#000000" points="95,-.5 95,-19.5 166,-19.5 166,-.5 95,-.5"/>
<text text-anchor="middle" x="130.5" y="-7.5" font-family="Helvetica,sans-Serif" font-size="10.00" fill="#000000">rmg::Text2D</text>
</a>
</g>
</g>
<!-- Node0&#45;&gt;Node3 -->
<g id="edge3" class="edge">
<title>Node0&#45;&gt;Node3</title>
<path fill="none" stroke="#191970" d="M98.8747,-48.5004C106.6971,-38.9775 116.076,-27.5596 122.5792,-19.6427"/>
<polygon fill="#191970" stroke="#191970" points="96.1555,-46.2967 92.5126,-56.2455 101.5646,-50.7399 96.1555,-46.2967"/>
</g>
<!-- Node1 -->
<g id="node2" class="node">
<title>Node1</title>
<g id="a_node2"><a xlink:href="classrmg_1_1Object.html" target="_top" xlink:title="A foundation of all RMG graphical object data structures. ">
<polygon fill="#ffffff" stroke="#000000" points="50.5,-112.5 50.5,-131.5 118.5,-131.5 118.5,-112.5 50.5,-112.5"/>
<text text-anchor="middle" x="84.5" y="-119.5" font-family="Helvetica,sans-Serif" font-size="10.00" fill="#000000">rmg::Object</text>
</a>
</g>
</g>
<!-- Node1&#45;&gt;Node0 -->
<g id="edge1" class="edge">
<title>Node1&#45;&gt;Node0</title>
<path fill="none" stroke="#191970" d="M84.5,-102.1575C84.5,-93.155 84.5,-82.9199 84.5,-75.6427"/>
<polygon fill="#191970" stroke="#191970" points="81.0001,-102.2455 84.5,-112.2455 88.0001,-102.2456 81.0001,-102.2455"/>
</g>
</g>
</svg>
