<?xml version="1.0" encoding="UTF-8" standalone="no"?>
<!DOCTYPE svg PUBLIC "-//W3C//DTD SVG 1.1//EN"
 "http://www.w3.org/Graphics/SVG/1.1/DTD/svg11.dtd">
<!-- Generated by graphviz version 2.40.1 (20161225.0304)
 -->
<!-- Title: rmg::Object Pages: 1 -->
<svg width="570pt" height="140pt"
 viewBox="0.00 0.00 570.00 140.00" xmlns="http://www.w3.org/2000/svg" xmlns:xlink="http://www.w3.org/1999/xlink">
<g id="graph0" class="graph" transform="scale(1 1) rotate(0) translate(4 136)">
<title>rmg::Object</title>
<polygon fill="#ffffff" stroke="transparent" points="-4,4 -4,-136 566,-136 566,4 -4,4"/>
<!-- Node0 -->
<g id="node1" class="node">
<title>Node0</title>
<polygon fill="#bfbfbf" stroke="#000000" points="191.5,-112.5 191.5,-131.5 259.5,-131.5 259.5,-112.5 191.5,-112.5"/>
<text text-anchor="middle" x="225.5" y="-119.5" font-family="Helvetica,sans-Serif" font-size="10.00" fill="#000000">rmg::Object</text>
</g>
<!-- Node1 -->
<g id="node2" class="node">
<title>Node1</title>
<g id="a_node2"><a xlink:href="classrmg_1_1Line3D.html" target="_top" xlink:title="Draws a line in 3D space. ">
<polygon fill="#ffffff" stroke="#000000" points="25.5,-56.5 25.5,-75.5 95.5,-75.5 95.5,-56.5 25.5,-56.5"/>
<text text-anchor="middle" x="60.5" y="-63.5" font-family="Helvetica,sans-Serif" font-size="10.00" fill="#000000">rmg::Line3D</text>
</a>
</g>
</g>
<!-- Node0&#45;&gt;Node1 -->
<g id="edge1" class="edge">
<title>Node0&#45;&gt;Node1</title>
<path fill="none" stroke="#191970" d="M187.3644,-109.057C157.1675,-98.8084 115.6837,-84.729 88.4944,-75.5011"/>
<polygon fill="#191970" stroke="#191970" points="186.5411,-112.4736 197.1355,-112.3733 188.7909,-105.845 186.5411,-112.4736"/>
</g>
<!-- Node2 -->
<g id="node3" class="node">
<title>Node2</title>
<g id="a_node3"><a xlink:href="classrmg_1_1Object2D.html" target="_top" xlink:title="2D graphics displayed on top of the 3D graphics context ">
<polygon fill="#ffffff" stroke="#000000" points="113.5,-56.5 113.5,-75.5 193.5,-75.5 193.5,-56.5 113.5,-56.5"/>
<text text-anchor="middle" x="153.5" y="-63.5" font-family="Helvetica,sans-Serif" font-size="10.00" fill="#000000">rmg::Object2D</text>
</a>
</g>
</g>
<!-- Node0&#45;&gt;Node2 -->
<g id="edge2" class="edge">
<title>Node0&#45;&gt;Node2</title>
<path fill="none" stroke="#191970" d="M204.836,-105.928C192.2511,-96.1397 176.5908,-83.9595 165.8977,-75.6427"/>
<polygon fill="#191970" stroke="#191970" points="202.9162,-108.8688 212.9586,-112.2455 207.2138,-103.3434 202.9162,-108.8688"/>
</g>
<!-- Node5 -->
<g id="node6" class="node">
<title>Node5</title>
<g id="a_node6"><a xlink:href="classrmg_1_1Object3D.html" target="_top" xlink:title="3D object whose model and appearance can be controlled quickly ">
<polygon fill="#ffffff" stroke="#000000" points="257.5,-56.5 257.5,-75.5 337.5,-75.5 337.5,-56.5 257.5,-56.5"/>
<text text-anchor="middle" x="297.5" y="-63.5" font-family="Helvetica,sans-Serif" font-size="10.00" fill="#000000">rmg::Object3D</text>
</a>
</g>
</g>
<!-- Node0&#45;&gt;Node5 -->
<g id="edge5" class="edge">
<title>Node0&#45;&gt;Node5</title>
<path fill="none" stroke="#191970" d="M246.164,-105.928C258.7489,-96.1397 274.4092,-83.9595 285.1023,-75.6427"/>
<polygon fill="#191970" stroke="#191970" points="243.7862,-103.3434 238.0414,-112.2455 248.0838,-108.8688 243.7862,-103.3434"/>
</g>
<!-- Node10 -->
<g id="node11" class="node">
<title>Node10</title>
<g id="a_node11"><a xlink:href="classrmg_1_1Particle3D.html" target="_top" xlink:title="2D graphics displayed in terms of 3D space ">
<polygon fill="#ffffff" stroke="#000000" points="356,-56.5 356,-75.5 441,-75.5 441,-56.5 356,-56.5"/>
<text text-anchor="middle" x="398.5" y="-63.5" font-family="Helvetica,sans-Serif" font-size="10.00" fill="#000000">rmg::Particle3D</text>
</a>
</g>
</g>
<!-- Node0&#45;&gt;Node10 -->
<g id="edge10" class="edge">
<title>Node0&#45;&gt;Node10</title>
<path fill="none" stroke="#191970" d="M265.0723,-109.1905C296.7671,-98.9309 340.5168,-84.7691 369.1483,-75.5011"/>
<polygon fill="#191970" stroke="#191970" points="263.6758,-105.9636 255.2398,-112.3733 265.8316,-112.6234 263.6758,-105.9636"/>
</g>
<!-- Node3 -->
<g id="node4" class="node">
<title>Node3</title>
<g id="a_node4"><a xlink:href="classrmg_1_1Sprite2D.html" target="_top" xlink:title="2D sprite images for 2D games ">
<polygon fill="#ffffff" stroke="#000000" points="0,-.5 0,-19.5 77,-19.5 77,-.5 0,-.5"/>
<text text-anchor="middle" x="38.5" y="-7.5" font-family="Helvetica,sans-Serif" font-size="10.00" fill="#000000">rmg::Sprite2D</text>
</a>
</g>
</g>
<!-- Node2&#45;&gt;Node3 -->
<g id="edge3" class="edge">
<title>Node2&#45;&gt;Node3</title>
<path fill="none" stroke="#191970" d="M124.6967,-51.9741C103.875,-41.8348 76.3022,-28.408 58.0112,-19.5011"/>
<polygon fill="#191970" stroke="#191970" points="123.2078,-55.1419 133.7308,-56.3733 126.2724,-48.8484 123.2078,-55.1419"/>
</g>
<!-- Node4 -->
<g id="node5" class="node">
<title>Node4</title>
<g id="a_node5"><a xlink:href="classrmg_1_1Text2D.html" target="_top" xlink:title="Renders text as an 2D object. ">
<polygon fill="#ffffff" stroke="#000000" points="95,-.5 95,-19.5 166,-19.5 166,-.5 95,-.5"/>
<text text-anchor="middle" x="130.5" y="-7.5" font-family="Helvetica,sans-Serif" font-size="10.00" fill="#000000">rmg::Text2D</text>
</a>
</g>
</g>
<!-- Node2&#45;&gt;Node4 -->
<g id="edge4" class="edge">
<title>Node2&#45;&gt;Node4</title>
<path fill="none" stroke="#191970" d="M145.5934,-46.7493C141.8383,-37.6064 137.5149,-27.0798 134.4604,-19.6427"/>
<polygon fill="#191970" stroke="#191970" points="142.4569,-48.3251 149.4937,-56.2455 148.932,-45.6656 142.4569,-48.3251"/>
</g>
<!-- Node6 -->
<g id="node7" class="node">
<title>Node6</title>
<g id="a_node7"><a xlink:href="classrmg_1_1Cube3D.html" target="_top" xlink:title="Visual 3D cube model. ">
<polygon fill="#ffffff" stroke="#000000" points="184,-.5 184,-19.5 259,-19.5 259,-.5 184,-.5"/>
<text text-anchor="middle" x="221.5" y="-7.5" font-family="Helvetica,sans-Serif" font-size="10.00" fill="#000000">rmg::Cube3D</text>
</a>
</g>
</g>
<!-- Node5&#45;&gt;Node6 -->
<g id="edge6" class="edge">
<title>Node5&#45;&gt;Node6</title>
<path fill="none" stroke="#191970" d="M276.0703,-50.2097C262.7223,-40.3743 245.9821,-28.0394 234.5865,-19.6427"/>
<polygon fill="#191970" stroke="#191970" points="274.135,-53.1312 284.2618,-56.2455 278.2874,-47.4958 274.135,-53.1312"/>
</g>
<!-- Node7 -->
<g id="node8" class="node">
<title>Node7</title>
<g id="a_node8"><a xlink:href="classrmg_1_1Cylinder3D.html" target="_top" xlink:title="Visual cylinder model. ">
<polygon fill="#ffffff" stroke="#000000" points="276.5,-.5 276.5,-19.5 364.5,-19.5 364.5,-.5 276.5,-.5"/>
<text text-anchor="middle" x="320.5" y="-7.5" font-family="Helvetica,sans-Serif" font-size="10.00" fill="#000000">rmg::Cylinder3D</text>
</a>
</g>
</g>
<!-- Node5&#45;&gt;Node7 -->
<g id="edge7" class="edge">
<title>Node5&#45;&gt;Node7</title>
<path fill="none" stroke="#191970" d="M305.4066,-46.7493C309.1617,-37.6064 313.4851,-27.0798 316.5396,-19.6427"/>
<polygon fill="#191970" stroke="#191970" points="302.068,-45.6656 301.5063,-56.2455 308.5431,-48.3251 302.068,-45.6656"/>
</g>
<!-- Node8 -->
<g id="node9" class="node">
<title>Node8</title>
<g id="a_node9"><a xlink:href="classrmg_1_1Model3D.html" target="_top" xlink:title="3D object loaded from file other than basic geometries ">
<polygon fill="#ffffff" stroke="#000000" points="382.5,-.5 382.5,-19.5 460.5,-19.5 460.5,-.5 382.5,-.5"/>
<text text-anchor="middle" x="421.5" y="-7.5" font-family="Helvetica,sans-Serif" font-size="10.00" fill="#000000">rmg::Model3D</text>
</a>
</g>
</g>
<!-- Node5&#45;&gt;Node8 -->
<g id="edge8" class="edge">
<title>Node5&#45;&gt;Node8</title>
<path fill="none" stroke="#191970" d="M327.9524,-52.2473C350.4722,-42.0771 380.5617,-28.4883 400.4618,-19.5011"/>
<polygon fill="#191970" stroke="#191970" points="326.4895,-49.0675 318.8164,-56.3733 329.3706,-55.4471 326.4895,-49.0675"/>
</g>
<!-- Node9 -->
<g id="node10" class="node">
<title>Node9</title>
<g id="a_node10"><a xlink:href="classrmg_1_1Sphere3D.html" target="_top" xlink:title="Visual sphere model. ">
<polygon fill="#ffffff" stroke="#000000" points="479,-.5 479,-19.5 562,-19.5 562,-.5 479,-.5"/>
<text text-anchor="middle" x="520.5" y="-7.5" font-family="Helvetica,sans-Serif" font-size="10.00" fill="#000000">rmg::Sphere3D</text>
</a>
</g>
</g>
<!-- Node5&#45;&gt;Node9 -->
<g id="edge9" class="edge">
<title>Node5&#45;&gt;Node9</title>
<path fill="none" stroke="#191970" d="M345.3574,-53.982C386.3889,-43.6781 444.7076,-29.0331 482.5754,-19.5237"/>
<polygon fill="#191970" stroke="#191970" points="344.4281,-50.6066 335.5817,-56.4369 346.133,-57.3958 344.4281,-50.6066"/>
</g>
</g>
</svg>
