<?xml version="1.0" encoding="UTF-8" standalone="no"?>
<!DOCTYPE svg PUBLIC "-//W3C//DTD SVG 1.1//EN"
 "http://www.w3.org/Graphics/SVG/1.1/DTD/svg11.dtd">
<!-- Generated by graphviz version 2.40.1 (20161225.0304)
 -->
<!-- Title: rmg Pages: 1 -->
<svg width="94pt" height="220pt"
 viewBox="0.00 0.00 94.00 220.00" xmlns="http://www.w3.org/2000/svg" xmlns:xlink="http://www.w3.org/1999/xlink">
<g id="graph0" class="graph" transform="scale(1 1) rotate(0) translate(4 216)">
<title>rmg</title>
<polygon fill="#ffffff" stroke="transparent" points="-4,4 -4,-216 90,-216 90,4 -4,4"/>
<g id="clust1" class="cluster">
<title>clusterdir_eb2ca9f0e8f5a33b2deef8a85a1ddbf1</title>
<g id="a_clust1"><a xlink:href="dir_eb2ca9f0e8f5a33b2deef8a85a1ddbf1.html" target="_top">
<polygon fill="#eeeeff" stroke="#000000" points="8,-8 8,-204 78,-204 78,-8 8,-8"/>
</a>
</g>
</g>
<!-- dir_eb2ca9f0e8f5a33b2deef8a85a1ddbf1 -->
<g id="node1" class="node">
<title>dir_eb2ca9f0e8f5a33b2deef8a85a1ddbf1</title>
<text text-anchor="middle" x="43" y="-175.5" font-family="Helvetica,sans-Serif" font-size="10.00" fill="#000000">rmg</text>
</g>
<!-- dir_a98ad7b7997c289b1eb5207ee5552484 -->
<g id="node2" class="node">
<title>dir_a98ad7b7997c289b1eb5207ee5552484</title>
<g id="a_node2"><a xlink:href="dir_a98ad7b7997c289b1eb5207ee5552484.html" target="_top" xlink:title="internal">
<polygon fill="#ffffff" stroke="#000000" points="70,-124 16,-124 16,-88 70,-88 70,-124"/>
<text text-anchor="middle" x="43" y="-103.5" font-family="Helvetica,sans-Serif" font-size="10.00" fill="#000000">internal</text>
</a>
</g>
</g>
<!-- dir_eb2ca9f0e8f5a33b2deef8a85a1ddbf1&#45;&gt;dir_a98ad7b7997c289b1eb5207ee5552484 -->
<g id="edge1" class="edge">
<title>dir_eb2ca9f0e8f5a33b2deef8a85a1ddbf1&#45;&gt;dir_a98ad7b7997c289b1eb5207ee5552484</title>
<path fill="none" stroke="#000000" d="M43,-159.8314C43,-152.131 43,-142.9743 43,-134.4166"/>
<polygon fill="#000000" stroke="#000000" points="46.5001,-134.4132 43,-124.4133 39.5001,-134.4133 46.5001,-134.4132"/>
<g id="a_edge1&#45;headlabel"><a xlink:href="dir_000000_000001.html" target="_top" xlink:title="14">
<text text-anchor="middle" x="49.3393" y="-135.5079" font-family="Helvetica,sans-Serif" font-size="10.00" fill="#000000">14</text>
</a>
</g>
</g>
<!-- dir_6102a08a24390c70e82ea74bcb9b2b0a -->
<g id="node3" class="node">
<title>dir_6102a08a24390c70e82ea74bcb9b2b0a</title>
<g id="a_node3"><a xlink:href="dir_6102a08a24390c70e82ea74bcb9b2b0a.html" target="_top" xlink:title="math">
<polygon fill="#ffffff" stroke="#000000" points="70,-52 16,-52 16,-16 70,-16 70,-52"/>
<text text-anchor="middle" x="43" y="-31.5" font-family="Helvetica,sans-Serif" font-size="10.00" fill="#000000">math</text>
</a>
</g>
</g>
<!-- dir_a98ad7b7997c289b1eb5207ee5552484&#45;&gt;dir_6102a08a24390c70e82ea74bcb9b2b0a -->
<g id="edge2" class="edge">
<title>dir_a98ad7b7997c289b1eb5207ee5552484&#45;&gt;dir_6102a08a24390c70e82ea74bcb9b2b0a</title>
<path fill="none" stroke="#000000" d="M43,-87.8314C43,-80.131 43,-70.9743 43,-62.4166"/>
<polygon fill="#000000" stroke="#000000" points="46.5001,-62.4132 43,-52.4133 39.5001,-62.4133 46.5001,-62.4132"/>
<g id="a_edge2&#45;headlabel"><a xlink:href="dir_000001_000002.html" target="_top" xlink:title="1">
<text text-anchor="middle" x="49.3393" y="-63.5079" font-family="Helvetica,sans-Serif" font-size="10.00" fill="#000000">1</text>
</a>
</g>
</g>
</g>
</svg>
