<?xml version="1.0" encoding="UTF-8" standalone="no"?>
<!DOCTYPE svg PUBLIC "-//W3C//DTD SVG 1.1//EN"
 "http://www.w3.org/Graphics/SVG/1.1/DTD/svg11.dtd">
<!-- Generated by graphviz version 2.43.0 (0)
 -->
<!-- Title: rmg Pages: 1 -->
<svg width="94pt" height="220pt"
 viewBox="0.00 0.00 94.00 220.00" xmlns="http://www.w3.org/2000/svg" xmlns:xlink="http://www.w3.org/1999/xlink">
<g id="graph0" class="graph" transform="scale(1 1) rotate(0) translate(4 216)">
<title>rmg</title>
<polygon fill="white" stroke="transparent" points="-4,4 -4,-216 90,-216 90,4 -4,4"/>
<g id="clust1" class="cluster">
<title>clusterdir_dcc20739543a19b577b531deea94d4fb</title>
<g id="a_clust1"><a xlink:href="dir_dcc20739543a19b577b531deea94d4fb.html" target="_top">
<polygon fill="#eeeeff" stroke="black" points="8,-8 8,-204 78,-204 78,-8 8,-8"/>
</a>
</g>
</g>
<!-- dir_dcc20739543a19b577b531deea94d4fb -->
<g id="node1" class="node">
<title>dir_dcc20739543a19b577b531deea94d4fb</title>
<text text-anchor="middle" x="43" y="-175.5" font-family="Helvetica,sans-Serif" font-size="10.00">rmg</text>
</g>
<!-- dir_bf3f6a75260bd39778e35a2c172e29b7 -->
<g id="node2" class="node">
<title>dir_bf3f6a75260bd39778e35a2c172e29b7</title>
<g id="a_node2"><a xlink:href="dir_bf3f6a75260bd39778e35a2c172e29b7.html" target="_top" xlink:title="internal">
<polygon fill="white" stroke="black" points="70,-124 16,-124 16,-88 70,-88 70,-124"/>
<text text-anchor="middle" x="43" y="-103.5" font-family="Helvetica,sans-Serif" font-size="10.00">internal</text>
</a>
</g>
</g>
<!-- dir_dcc20739543a19b577b531deea94d4fb&#45;&gt;dir_bf3f6a75260bd39778e35a2c172e29b7 -->
<g id="edge2" class="edge">
<title>dir_dcc20739543a19b577b531deea94d4fb&#45;&gt;dir_bf3f6a75260bd39778e35a2c172e29b7</title>
<path fill="none" stroke="black" d="M43,-159.7C43,-151.98 43,-142.71 43,-134.11"/>
<polygon fill="black" stroke="black" points="46.5,-134.1 43,-124.1 39.5,-134.1 46.5,-134.1"/>
<g id="a_edge2&#45;headlabel"><a xlink:href="dir_000003_000004.html" target="_top" xlink:title="15">
<text text-anchor="middle" x="49.34" y="-135.2" font-family="Helvetica,sans-Serif" font-size="10.00">15</text>
</a>
</g>
</g>
<!-- dir_c49a823a726f0578628f017baf36f3a3 -->
<g id="node3" class="node">
<title>dir_c49a823a726f0578628f017baf36f3a3</title>
<g id="a_node3"><a xlink:href="dir_c49a823a726f0578628f017baf36f3a3.html" target="_top" xlink:title="math">
<polygon fill="white" stroke="black" points="70,-52 16,-52 16,-16 70,-16 70,-52"/>
<text text-anchor="middle" x="43" y="-31.5" font-family="Helvetica,sans-Serif" font-size="10.00">math</text>
</a>
</g>
</g>
<!-- dir_bf3f6a75260bd39778e35a2c172e29b7&#45;&gt;dir_c49a823a726f0578628f017baf36f3a3 -->
<g id="edge1" class="edge">
<title>dir_bf3f6a75260bd39778e35a2c172e29b7&#45;&gt;dir_c49a823a726f0578628f017baf36f3a3</title>
<path fill="none" stroke="black" d="M43,-87.7C43,-79.98 43,-70.71 43,-62.11"/>
<polygon fill="black" stroke="black" points="46.5,-62.1 43,-52.1 39.5,-62.1 46.5,-62.1"/>
<g id="a_edge1&#45;headlabel"><a xlink:href="dir_000004_000005.html" target="_top" xlink:title="2">
<text text-anchor="middle" x="49.34" y="-63.2" font-family="Helvetica,sans-Serif" font-size="10.00">2</text>
</a>
</g>
</g>
</g>
</svg>
