<?xml version="1.0" encoding="UTF-8" standalone="no"?>
<!DOCTYPE svg PUBLIC "-//W3C//DTD SVG 1.1//EN"
 "http://www.w3.org/Graphics/SVG/1.1/DTD/svg11.dtd">
<!-- Generated by graphviz version 2.43.0 (0)
 -->
<!-- Title: Graphical Class Hierarchy Pages: 1 -->
<svg width="321pt" height="192pt"
 viewBox="0.00 0.00 321.00 192.00" xmlns="http://www.w3.org/2000/svg" xmlns:xlink="http://www.w3.org/1999/xlink">
<g id="graph0" class="graph" transform="scale(1 1) rotate(0) translate(4 188)">
<title>Graphical Class Hierarchy</title>
<polygon fill="white" stroke="transparent" points="-4,4 -4,-188 317,-188 317,4 -4,4"/>
<!-- Node0 -->
<g id="node1" class="node">
<title>Node0</title>
<g id="a_node1"><a xlink:href="classrmg_1_1internal_1_1Shader.html" target="_top" xlink:title="The shader program taking main backend role in drawing.">
<polygon fill="white" stroke="black" points="0,-88.5 0,-107.5 119,-107.5 119,-88.5 0,-88.5"/>
<text text-anchor="middle" x="59.5" y="-95.5" font-family="Helvetica,sans-Serif" font-size="10.00">rmg::internal::Shader</text>
</a>
</g>
</g>
<!-- Node1 -->
<g id="node2" class="node">
<title>Node1</title>
<g id="a_node2"><a xlink:href="classrmg_1_1internal_1_1GeneralShader.html" target="_top" xlink:title="Peforms general tasks like positioning and lighting.">
<polygon fill="white" stroke="black" points="155,-164.5 155,-183.5 313,-183.5 313,-164.5 155,-164.5"/>
<text text-anchor="middle" x="234" y="-171.5" font-family="Helvetica,sans-Serif" font-size="10.00">rmg::internal::GeneralShader</text>
</a>
</g>
</g>
<!-- Node0&#45;&gt;Node1 -->
<g id="edge1" class="edge">
<title>Node0&#45;&gt;Node1</title>
<path fill="none" stroke="midnightblue" d="M81.88,-113.49C100.41,-126.27 128.36,-144.02 155,-155 164.15,-158.77 174.22,-161.91 184.01,-164.48"/>
<polygon fill="midnightblue" stroke="midnightblue" points="83.78,-110.55 73.58,-107.67 79.76,-116.28 83.78,-110.55"/>
</g>
<!-- Node2 -->
<g id="node3" class="node">
<title>Node2</title>
<g id="a_node3"><a xlink:href="classrmg_1_1internal_1_1Line3DShader.html" target="_top" xlink:title="Displays non&#45;polygon objects like lines in 3D space.">
<polygon fill="white" stroke="black" points="157.5,-126.5 157.5,-145.5 310.5,-145.5 310.5,-126.5 157.5,-126.5"/>
<text text-anchor="middle" x="234" y="-133.5" font-family="Helvetica,sans-Serif" font-size="10.00">rmg::internal::Line3DShader</text>
</a>
</g>
</g>
<!-- Node0&#45;&gt;Node2 -->
<g id="edge2" class="edge">
<title>Node0&#45;&gt;Node2</title>
<path fill="none" stroke="midnightblue" d="M113.85,-109.75C138.24,-115.13 166.76,-121.41 189.78,-126.48"/>
<polygon fill="midnightblue" stroke="midnightblue" points="114.55,-106.32 104.03,-107.59 113.04,-113.16 114.55,-106.32"/>
</g>
<!-- Node3 -->
<g id="node4" class="node">
<title>Node3</title>
<g id="a_node4"><a xlink:href="classrmg_1_1internal_1_1ParticleShader.html" target="_top" xlink:title="Calculates the location of particle and displays as a 2D sprite.">
<polygon fill="white" stroke="black" points="156,-88.5 156,-107.5 312,-107.5 312,-88.5 156,-88.5"/>
<text text-anchor="middle" x="234" y="-95.5" font-family="Helvetica,sans-Serif" font-size="10.00">rmg::internal::ParticleShader</text>
</a>
</g>
</g>
<!-- Node0&#45;&gt;Node3 -->
<g id="edge3" class="edge">
<title>Node0&#45;&gt;Node3</title>
<path fill="none" stroke="midnightblue" d="M129.42,-98C138.09,-98 146.99,-98 155.78,-98"/>
<polygon fill="midnightblue" stroke="midnightblue" points="129.38,-94.5 119.38,-98 129.38,-101.5 129.38,-94.5"/>
</g>
<!-- Node4 -->
<g id="node5" class="node">
<title>Node4</title>
<g id="a_node5"><a xlink:href="classrmg_1_1internal_1_1ShadowMapShader.html" target="_top" xlink:title="Generates an image representing the distance from sun at every pixel.">
<polygon fill="white" stroke="black" points="161.5,-39 161.5,-69 306.5,-69 306.5,-39 161.5,-39"/>
<text text-anchor="start" x="169.5" y="-57" font-family="Helvetica,sans-Serif" font-size="10.00">rmg::internal::ShadowMap</text>
<text text-anchor="middle" x="234" y="-46" font-family="Helvetica,sans-Serif" font-size="10.00">Shader</text>
</a>
</g>
</g>
<!-- Node0&#45;&gt;Node4 -->
<g id="edge4" class="edge">
<title>Node0&#45;&gt;Node4</title>
<path fill="none" stroke="midnightblue" d="M107.65,-85.97C128.11,-80.75 152.3,-74.59 173.94,-69.07"/>
<polygon fill="midnightblue" stroke="midnightblue" points="106.75,-82.59 97.93,-88.45 108.48,-89.37 106.75,-82.59"/>
</g>
<!-- Node5 -->
<g id="node6" class="node">
<title>Node5</title>
<g id="a_node6"><a xlink:href="classrmg_1_1internal_1_1SpriteShader.html" target="_top" xlink:title="Displays 2D objects like sprites and texts.">
<polygon fill="white" stroke="black" points="160,-0.5 160,-19.5 308,-19.5 308,-0.5 160,-0.5"/>
<text text-anchor="middle" x="234" y="-7.5" font-family="Helvetica,sans-Serif" font-size="10.00">rmg::internal::SpriteShader</text>
</a>
</g>
</g>
<!-- Node0&#45;&gt;Node5 -->
<g id="edge5" class="edge">
<title>Node0&#45;&gt;Node5</title>
<path fill="none" stroke="midnightblue" d="M78.98,-81.47C97.13,-66.05 126.21,-43.46 155,-30 164.12,-25.74 174.28,-22.29 184.17,-19.54"/>
<polygon fill="midnightblue" stroke="midnightblue" points="76.26,-79.19 71,-88.39 80.84,-84.48 76.26,-79.19"/>
</g>
</g>
</svg>
