<?xml version="1.0" encoding="UTF-8" standalone="no"?>
<!DOCTYPE svg PUBLIC "-//W3C//DTD SVG 1.1//EN"
 "http://www.w3.org/Graphics/SVG/1.1/DTD/svg11.dtd">
<!-- Generated by graphviz version 2.40.1 (20161225.0304)
 -->
<!-- Title: Graphical Class Hierarchy Pages: 1 -->
<svg width="321pt" height="218pt"
 viewBox="0.00 0.00 321.00 218.00" xmlns="http://www.w3.org/2000/svg" xmlns:xlink="http://www.w3.org/1999/xlink">
<g id="graph0" class="graph" transform="scale(1 1) rotate(0) translate(4 214)">
<title>Graphical Class Hierarchy</title>
<polygon fill="#ffffff" stroke="transparent" points="-4,4 -4,-214 317,-214 317,4 -4,4"/>
<!-- Node0 -->
<g id="node1" class="node">
<title>Node0</title>
<g id="a_node1"><a xlink:href="classrmg_1_1Object.html" target="_top" xlink:title="A foundation of all RMG graphical object data structures. ">
<polygon fill="#ffffff" stroke="#000000" points="0,-114.5 0,-133.5 68,-133.5 68,-114.5 0,-114.5"/>
<text text-anchor="middle" x="34" y="-121.5" font-family="Helvetica,sans-Serif" font-size="10.00" fill="#000000">rmg::Object</text>
</a>
</g>
</g>
<!-- Node1 -->
<g id="node2" class="node">
<title>Node1</title>
<g id="a_node2"><a xlink:href="classrmg_1_1Line3D.html" target="_top" xlink:title="Draws a line in 3D space. ">
<polygon fill="#ffffff" stroke="#000000" points="111.5,-180.5 111.5,-199.5 181.5,-199.5 181.5,-180.5 111.5,-180.5"/>
<text text-anchor="middle" x="146.5" y="-187.5" font-family="Helvetica,sans-Serif" font-size="10.00" fill="#000000">rmg::Line3D</text>
</a>
</g>
</g>
<!-- Node0&#45;&gt;Node1 -->
<g id="edge1" class="edge">
<title>Node0&#45;&gt;Node1</title>
<path fill="none" stroke="#191970" d="M54.9384,-139.4359C68.5461,-149.1174 86.8786,-161.5161 104,-171 110.0802,-174.368 116.8716,-177.6173 123.2102,-180.4476"/>
<polygon fill="#191970" stroke="#191970" points="56.8973,-136.5334 46.7387,-133.5242 52.8035,-142.2115 56.8973,-136.5334"/>
</g>
<!-- Node2 -->
<g id="node3" class="node">
<title>Node2</title>
<g id="a_node3"><a xlink:href="classrmg_1_1Object2D.html" target="_top" xlink:title="2D graphics displayed on top of the 3D graphics context ">
<polygon fill="#ffffff" stroke="#000000" points="106.5,-142.5 106.5,-161.5 186.5,-161.5 186.5,-142.5 106.5,-142.5"/>
<text text-anchor="middle" x="146.5" y="-149.5" font-family="Helvetica,sans-Serif" font-size="10.00" fill="#000000">rmg::Object2D</text>
</a>
</g>
</g>
<!-- Node0&#45;&gt;Node2 -->
<g id="edge2" class="edge">
<title>Node0&#45;&gt;Node2</title>
<path fill="none" stroke="#191970" d="M77.8509,-134.914C87.8777,-137.4096 98.4576,-140.0428 108.2287,-142.4747"/>
<polygon fill="#191970" stroke="#191970" points="78.6083,-131.4958 68.059,-132.4769 76.9176,-138.2886 78.6083,-131.4958"/>
</g>
<!-- Node5 -->
<g id="node6" class="node">
<title>Node5</title>
<g id="a_node6"><a xlink:href="classrmg_1_1Object3D.html" target="_top" xlink:title="3D object whose model and appearance can be controlled quickly ">
<polygon fill="#ffffff" stroke="#000000" points="106.5,-95.5 106.5,-114.5 186.5,-114.5 186.5,-95.5 106.5,-95.5"/>
<text text-anchor="middle" x="146.5" y="-102.5" font-family="Helvetica,sans-Serif" font-size="10.00" fill="#000000">rmg::Object3D</text>
</a>
</g>
</g>
<!-- Node0&#45;&gt;Node5 -->
<g id="edge5" class="edge">
<title>Node0&#45;&gt;Node5</title>
<path fill="none" stroke="#191970" d="M77.9341,-116.58C87.2539,-115.006 97.048,-113.3519 106.2238,-111.8022"/>
<polygon fill="#191970" stroke="#191970" points="77.3365,-113.1313 68.059,-118.2478 78.5023,-120.0336 77.3365,-113.1313"/>
</g>
<!-- Node10 -->
<g id="node11" class="node">
<title>Node10</title>
<g id="a_node11"><a xlink:href="classrmg_1_1Particle3D.html" target="_top" xlink:title="2D graphics displayed in terms of 3D space ">
<polygon fill="#ffffff" stroke="#000000" points="104,-57.5 104,-76.5 189,-76.5 189,-57.5 104,-57.5"/>
<text text-anchor="middle" x="146.5" y="-64.5" font-family="Helvetica,sans-Serif" font-size="10.00" fill="#000000">rmg::Particle3D</text>
</a>
</g>
</g>
<!-- Node0&#45;&gt;Node10 -->
<g id="edge10" class="edge">
<title>Node0&#45;&gt;Node10</title>
<path fill="none" stroke="#191970" d="M59.7143,-109.4256C72.8399,-102.144 89.1356,-93.3437 104,-86 110.5215,-82.7781 117.7105,-79.4732 124.2915,-76.542"/>
<polygon fill="#191970" stroke="#191970" points="57.8048,-106.4832 50.7828,-114.4168 61.2196,-112.5938 57.8048,-106.4832"/>
</g>
<!-- Node3 -->
<g id="node4" class="node">
<title>Node3</title>
<g id="a_node4"><a xlink:href="classrmg_1_1Sprite2D.html" target="_top" xlink:title="2D sprite images for 2D games ">
<polygon fill="#ffffff" stroke="#000000" points="230.5,-190.5 230.5,-209.5 307.5,-209.5 307.5,-190.5 230.5,-190.5"/>
<text text-anchor="middle" x="269" y="-197.5" font-family="Helvetica,sans-Serif" font-size="10.00" fill="#000000">rmg::Sprite2D</text>
</a>
</g>
</g>
<!-- Node2&#45;&gt;Node3 -->
<g id="edge3" class="edge">
<title>Node2&#45;&gt;Node3</title>
<path fill="none" stroke="#191970" d="M180.5178,-165.3294C200.8452,-173.2944 226.1971,-183.2282 244.5472,-190.4185"/>
<polygon fill="#191970" stroke="#191970" points="181.583,-161.9877 170.9953,-161.5982 179.0291,-168.5053 181.583,-161.9877"/>
</g>
<!-- Node4 -->
<g id="node5" class="node">
<title>Node4</title>
<g id="a_node5"><a xlink:href="classrmg_1_1Text2D.html" target="_top" xlink:title="Renders text as an 2D object. ">
<polygon fill="#ffffff" stroke="#000000" points="233.5,-152.5 233.5,-171.5 304.5,-171.5 304.5,-152.5 233.5,-152.5"/>
<text text-anchor="middle" x="269" y="-159.5" font-family="Helvetica,sans-Serif" font-size="10.00" fill="#000000">rmg::Text2D</text>
</a>
</g>
</g>
<!-- Node2&#45;&gt;Node4 -->
<g id="edge4" class="edge">
<title>Node2&#45;&gt;Node4</title>
<path fill="none" stroke="#191970" d="M196.7362,-156.1009C209.0148,-157.1033 221.904,-158.1554 233.3416,-159.0891"/>
<polygon fill="#191970" stroke="#191970" points="196.8627,-152.5997 186.6111,-155.2744 196.2931,-159.5765 196.8627,-152.5997"/>
</g>
<!-- Node6 -->
<g id="node7" class="node">
<title>Node6</title>
<g id="a_node7"><a xlink:href="classrmg_1_1Cube3D.html" target="_top" xlink:title="Visual 3D cube model. ">
<polygon fill="#ffffff" stroke="#000000" points="231.5,-114.5 231.5,-133.5 306.5,-133.5 306.5,-114.5 231.5,-114.5"/>
<text text-anchor="middle" x="269" y="-121.5" font-family="Helvetica,sans-Serif" font-size="10.00" fill="#000000">rmg::Cube3D</text>
</a>
</g>
</g>
<!-- Node5&#45;&gt;Node6 -->
<g id="edge6" class="edge">
<title>Node5&#45;&gt;Node6</title>
<path fill="none" stroke="#191970" d="M196.61,-112.7722C208.1991,-114.5697 220.3388,-116.4526 231.2934,-118.1516"/>
<polygon fill="#191970" stroke="#191970" points="197.0294,-109.2954 186.6111,-111.2213 195.9565,-116.2127 197.0294,-109.2954"/>
</g>
<!-- Node7 -->
<g id="node8" class="node">
<title>Node7</title>
<g id="a_node8"><a xlink:href="classrmg_1_1Cylinder3D.html" target="_top" xlink:title="Visual cylinder model. ">
<polygon fill="#ffffff" stroke="#000000" points="225,-76.5 225,-95.5 313,-95.5 313,-76.5 225,-76.5"/>
<text text-anchor="middle" x="269" y="-83.5" font-family="Helvetica,sans-Serif" font-size="10.00" fill="#000000">rmg::Cylinder3D</text>
</a>
</g>
</g>
<!-- Node5&#45;&gt;Node7 -->
<g id="edge7" class="edge">
<title>Node5&#45;&gt;Node7</title>
<path fill="none" stroke="#191970" d="M196.6271,-97.2252C206.0288,-95.767 215.7923,-94.2526 224.991,-92.8259"/>
<polygon fill="#191970" stroke="#191970" points="195.9565,-93.7873 186.6111,-98.7787 197.0294,-100.7046 195.9565,-93.7873"/>
</g>
<!-- Node8 -->
<g id="node9" class="node">
<title>Node8</title>
<g id="a_node9"><a xlink:href="classrmg_1_1Model3D.html" target="_top" xlink:title="3D object loaded from file other than basic geometries ">
<polygon fill="#ffffff" stroke="#000000" points="230,-38.5 230,-57.5 308,-57.5 308,-38.5 230,-38.5"/>
<text text-anchor="middle" x="269" y="-45.5" font-family="Helvetica,sans-Serif" font-size="10.00" fill="#000000">rmg::Model3D</text>
</a>
</g>
</g>
<!-- Node5&#45;&gt;Node8 -->
<g id="edge8" class="edge">
<title>Node5&#45;&gt;Node8</title>
<path fill="none" stroke="#191970" d="M177.8903,-91.2447C181.6509,-89.515 185.4233,-87.7411 189,-86 205.2668,-78.0817 208.683,-74.8143 225,-67 231.754,-63.7655 239.1974,-60.4569 246.0106,-57.5261"/>
<polygon fill="#191970" stroke="#191970" points="176.3529,-88.0987 168.6849,-95.4097 179.2385,-94.4763 176.3529,-88.0987"/>
</g>
<!-- Node9 -->
<g id="node10" class="node">
<title>Node9</title>
<g id="a_node10"><a xlink:href="classrmg_1_1Sphere3D.html" target="_top" xlink:title="Visual sphere model. ">
<polygon fill="#ffffff" stroke="#000000" points="227.5,-.5 227.5,-19.5 310.5,-19.5 310.5,-.5 227.5,-.5"/>
<text text-anchor="middle" x="269" y="-7.5" font-family="Helvetica,sans-Serif" font-size="10.00" fill="#000000">rmg::Sphere3D</text>
</a>
</g>
</g>
<!-- Node5&#45;&gt;Node9 -->
<g id="edge9" class="edge">
<title>Node5&#45;&gt;Node9</title>
<path fill="none" stroke="#191970" d="M183.4254,-90.219C185.3873,-88.9101 187.2629,-87.505 189,-86 211.6456,-66.3797 202.2296,-48.4753 225,-29 229.4263,-25.2142 234.7218,-22.0782 240.0801,-19.5197"/>
<polygon fill="#191970" stroke="#191970" points="181.3828,-87.3548 174.4332,-95.3519 184.853,-93.4341 181.3828,-87.3548"/>
</g>
</g>
</svg>
