<?xml version="1.0" encoding="UTF-8" standalone="no"?>
<!DOCTYPE svg PUBLIC "-//W3C//DTD SVG 1.1//EN"
 "http://www.w3.org/Graphics/SVG/1.1/DTD/svg11.dtd">
<!-- Generated by graphviz version 2.43.0 (0)
 -->
<!-- Title: Graphical Class Hierarchy Pages: 1 -->
<svg width="336pt" height="66pt"
 viewBox="0.00 0.00 336.00 66.00" xmlns="http://www.w3.org/2000/svg" xmlns:xlink="http://www.w3.org/1999/xlink">
<g id="graph0" class="graph" transform="scale(1 1) rotate(0) translate(4 62)">
<title>Graphical Class Hierarchy</title>
<polygon fill="white" stroke="transparent" points="-4,4 -4,-62 332,-62 332,4 -4,4"/>
<!-- Node39 -->
<g id="node1" class="node">
<title>Node39</title>
<g id="a_node1"><a xlink:href="classrmg_1_1internal_1_1ContextLoad.html" target="_top" xlink:title="Maintains the data to be loaded into OpenGL context before startup.">
<polygon fill="white" stroke="black" points="0,-38.5 0,-57.5 147,-57.5 147,-38.5 0,-38.5"/>
<text text-anchor="middle" x="73.5" y="-45.5" font-family="Helvetica,sans-Serif" font-size="10.00">rmg::internal::ContextLoad</text>
</a>
</g>
</g>
<!-- Node40 -->
<g id="node2" class="node">
<title>Node40</title>
<g id="a_node2"><a xlink:href="classrmg_1_1internal_1_1TextureLoad.html" target="_top" xlink:title="Maintains the image data before context startup.">
<polygon fill="white" stroke="black" points="183,-38.5 183,-57.5 328,-57.5 328,-38.5 183,-38.5"/>
<text text-anchor="middle" x="255.5" y="-45.5" font-family="Helvetica,sans-Serif" font-size="10.00">rmg::internal::TextureLoad</text>
</a>
</g>
</g>
<!-- Node39&#45;&gt;Node40 -->
<g id="edge1" class="edge">
<title>Node39&#45;&gt;Node40</title>
<path fill="none" stroke="midnightblue" d="M157.23,-48C165.84,-48 174.53,-48 183,-48"/>
<polygon fill="midnightblue" stroke="midnightblue" points="157.19,-44.5 147.19,-48 157.19,-51.5 157.19,-44.5"/>
</g>
<!-- Node1 -->
<g id="node3" class="node">
<title>Node1</title>
<g id="a_node3"><a xlink:href="classrmg_1_1internal_1_1VBOLoad.html" target="_top" xlink:title="Maintains the array of VBOs before context startup.">
<polygon fill="white" stroke="black" points="190.5,-0.5 190.5,-19.5 320.5,-19.5 320.5,-0.5 190.5,-0.5"/>
<text text-anchor="middle" x="255.5" y="-7.5" font-family="Helvetica,sans-Serif" font-size="10.00">rmg::internal::VBOLoad</text>
</a>
</g>
</g>
<!-- Node39&#45;&gt;Node1 -->
<g id="edge2" class="edge">
<title>Node39&#45;&gt;Node1</title>
<path fill="none" stroke="midnightblue" d="M129.83,-36.32C155.36,-30.93 185.28,-24.61 209.41,-19.52"/>
<polygon fill="midnightblue" stroke="midnightblue" points="128.98,-32.92 119.92,-38.41 130.43,-39.77 128.98,-32.92"/>
</g>
<!-- Node0 -->
<g id="node4" class="node">
<title>Node0</title>
<g id="a_node4"><a xlink:href="classrmg_1_1Mesh.html" target="_top" xlink:title="Structural build of a 3D model consisting of polygons.">
<polygon fill="white" stroke="black" points="39.5,-0.5 39.5,-19.5 107.5,-19.5 107.5,-0.5 39.5,-0.5"/>
<text text-anchor="middle" x="73.5" y="-7.5" font-family="Helvetica,sans-Serif" font-size="10.00">rmg::Mesh</text>
</a>
</g>
</g>
<!-- Node0&#45;&gt;Node1 -->
<g id="edge3" class="edge">
<title>Node0&#45;&gt;Node1</title>
<path fill="none" stroke="midnightblue" d="M117.75,-10C139.49,-10 166.27,-10 190.36,-10"/>
<polygon fill="midnightblue" stroke="midnightblue" points="117.51,-6.5 107.51,-10 117.51,-13.5 117.51,-6.5"/>
</g>
</g>
</svg>
