<?xml version="1.0" encoding="UTF-8" standalone="no"?>
<!DOCTYPE svg PUBLIC "-//W3C//DTD SVG 1.1//EN"
 "http://www.w3.org/Graphics/SVG/1.1/DTD/svg11.dtd">
<!-- Generated by graphviz version 2.43.0 (0)
 -->
<!-- Title: Graphical Class Hierarchy Pages: 1 -->
<svg width="342pt" height="180pt"
 viewBox="0.00 0.00 342.00 180.00" xmlns="http://www.w3.org/2000/svg" xmlns:xlink="http://www.w3.org/1999/xlink">
<g id="graph0" class="graph" transform="scale(1 1) rotate(0) translate(4 176)">
<title>Graphical Class Hierarchy</title>
<polygon fill="white" stroke="transparent" points="-4,4 -4,-176 338,-176 338,4 -4,4"/>
<!-- Node0 -->
<g id="node1" class="node">
<title>Node0</title>
<g id="a_node1"><a xlink:href="classrmg_1_1Object.html" target="_top" xlink:title="A foundation of all RMG graphical object data structures.">
<polygon fill="white" stroke="black" points="0,-95.5 0,-114.5 74,-114.5 74,-95.5 0,-95.5"/>
<text text-anchor="middle" x="37" y="-102.5" font-family="Helvetica,sans-Serif" font-size="10.00">rmg::Object</text>
</a>
</g>
</g>
<!-- Node1 -->
<g id="node2" class="node">
<title>Node1</title>
<g id="a_node2"><a xlink:href="classrmg_1_1Line3D.html" target="_top" xlink:title="Draws a line in 3D space.">
<polygon fill="white" stroke="black" points="118,-152.5 118,-171.5 194,-171.5 194,-152.5 118,-152.5"/>
<text text-anchor="middle" x="156" y="-159.5" font-family="Helvetica,sans-Serif" font-size="10.00">rmg::Line3D</text>
</a>
</g>
</g>
<!-- Node0&#45;&gt;Node1 -->
<g id="edge1" class="edge">
<title>Node0&#45;&gt;Node1</title>
<path fill="none" stroke="midnightblue" d="M64.04,-119.44C77.6,-126.78 94.54,-135.67 110,-143 116.74,-146.2 124.17,-149.44 131.01,-152.32"/>
<polygon fill="midnightblue" stroke="midnightblue" points="65.7,-116.36 55.25,-114.64 62.35,-122.5 65.7,-116.36"/>
</g>
<!-- Node2 -->
<g id="node3" class="node">
<title>Node2</title>
<g id="a_node3"><a xlink:href="classrmg_1_1Object2D.html" target="_top" xlink:title="2D graphics displayed on top of the 3D graphics context">
<polygon fill="white" stroke="black" points="112.5,-114.5 112.5,-133.5 199.5,-133.5 199.5,-114.5 112.5,-114.5"/>
<text text-anchor="middle" x="156" y="-121.5" font-family="Helvetica,sans-Serif" font-size="10.00">rmg::Object2D</text>
</a>
</g>
</g>
<!-- Node0&#45;&gt;Node2 -->
<g id="edge2" class="edge">
<title>Node0&#45;&gt;Node2</title>
<path fill="none" stroke="midnightblue" d="M83.96,-112.46C93.29,-113.98 103.07,-115.57 112.28,-117.06"/>
<polygon fill="midnightblue" stroke="midnightblue" points="84.49,-109 74.06,-110.86 83.37,-115.91 84.49,-109"/>
</g>
<!-- Node5 -->
<g id="node6" class="node">
<title>Node5</title>
<g id="a_node6"><a xlink:href="classrmg_1_1Object3D.html" target="_top" xlink:title="3D object whose model and appearance can be controlled quickly">
<polygon fill="white" stroke="black" points="112.5,-76.5 112.5,-95.5 199.5,-95.5 199.5,-76.5 112.5,-76.5"/>
<text text-anchor="middle" x="156" y="-83.5" font-family="Helvetica,sans-Serif" font-size="10.00">rmg::Object3D</text>
</a>
</g>
</g>
<!-- Node0&#45;&gt;Node5 -->
<g id="edge5" class="edge">
<title>Node0&#45;&gt;Node5</title>
<path fill="none" stroke="midnightblue" d="M83.96,-97.54C93.29,-96.02 103.07,-94.43 112.28,-92.94"/>
<polygon fill="midnightblue" stroke="midnightblue" points="83.37,-94.09 74.06,-99.14 84.49,-101 83.37,-94.09"/>
</g>
<!-- Node9 -->
<g id="node10" class="node">
<title>Node9</title>
<g id="a_node10"><a xlink:href="classrmg_1_1Particle3D.html" target="_top" xlink:title="2D graphics displayed in terms of 3D space">
<polygon fill="white" stroke="black" points="110,-38.5 110,-57.5 202,-57.5 202,-38.5 110,-38.5"/>
<text text-anchor="middle" x="156" y="-45.5" font-family="Helvetica,sans-Serif" font-size="10.00">rmg::Particle3D</text>
</a>
</g>
</g>
<!-- Node0&#45;&gt;Node9 -->
<g id="edge9" class="edge">
<title>Node0&#45;&gt;Node9</title>
<path fill="none" stroke="midnightblue" d="M64.04,-90.56C77.6,-83.22 94.54,-74.33 110,-67 116.74,-63.8 124.17,-60.56 131.01,-57.68"/>
<polygon fill="midnightblue" stroke="midnightblue" points="62.35,-87.5 55.25,-95.36 65.7,-93.64 62.35,-87.5"/>
</g>
<!-- Node3 -->
<g id="node4" class="node">
<title>Node3</title>
<g id="a_node4"><a xlink:href="classrmg_1_1Sprite2D.html" target="_top" xlink:title="2D sprite images for 2D games">
<polygon fill="white" stroke="black" points="244,-152.5 244,-171.5 328,-171.5 328,-152.5 244,-152.5"/>
<text text-anchor="middle" x="286" y="-159.5" font-family="Helvetica,sans-Serif" font-size="10.00">rmg::Sprite2D</text>
</a>
</g>
</g>
<!-- Node2&#45;&gt;Node3 -->
<g id="edge3" class="edge">
<title>Node2&#45;&gt;Node3</title>
<path fill="none" stroke="midnightblue" d="M199.22,-136.54C216.64,-141.7 236.49,-147.6 252.71,-152.41"/>
<polygon fill="midnightblue" stroke="midnightblue" points="199.88,-133.08 189.3,-133.59 197.89,-139.79 199.88,-133.08"/>
</g>
<!-- Node4 -->
<g id="node5" class="node">
<title>Node4</title>
<g id="a_node5"><a xlink:href="classrmg_1_1Text2D.html" target="_top" xlink:title="Renders text as an 2D object.">
<polygon fill="white" stroke="black" points="248,-114.5 248,-133.5 324,-133.5 324,-114.5 248,-114.5"/>
<text text-anchor="middle" x="286" y="-121.5" font-family="Helvetica,sans-Serif" font-size="10.00">rmg::Text2D</text>
</a>
</g>
</g>
<!-- Node2&#45;&gt;Node4 -->
<g id="edge4" class="edge">
<title>Node2&#45;&gt;Node4</title>
<path fill="none" stroke="midnightblue" d="M209.68,-124C222.45,-124 235.83,-124 247.72,-124"/>
<polygon fill="midnightblue" stroke="midnightblue" points="209.62,-120.5 199.62,-124 209.62,-127.5 209.62,-120.5"/>
</g>
<!-- Node6 -->
<g id="node7" class="node">
<title>Node6</title>
<g id="a_node7"><a xlink:href="classrmg_1_1Cube3D.html" target="_top" xlink:title="Visual 3D cube model.">
<polygon fill="white" stroke="black" points="246,-76.5 246,-95.5 326,-95.5 326,-76.5 246,-76.5"/>
<text text-anchor="middle" x="286" y="-83.5" font-family="Helvetica,sans-Serif" font-size="10.00">rmg::Cube3D</text>
</a>
</g>
</g>
<!-- Node5&#45;&gt;Node6 -->
<g id="edge6" class="edge">
<title>Node5&#45;&gt;Node6</title>
<path fill="none" stroke="midnightblue" d="M209.93,-86C221.86,-86 234.33,-86 245.59,-86"/>
<polygon fill="midnightblue" stroke="midnightblue" points="209.62,-82.5 199.62,-86 209.62,-89.5 209.62,-82.5"/>
</g>
<!-- Node7 -->
<g id="node8" class="node">
<title>Node7</title>
<g id="a_node8"><a xlink:href="classrmg_1_1Cylinder3D.html" target="_top" xlink:title="Visual cylinder model.">
<polygon fill="white" stroke="black" points="238,-38.5 238,-57.5 334,-57.5 334,-38.5 238,-38.5"/>
<text text-anchor="middle" x="286" y="-45.5" font-family="Helvetica,sans-Serif" font-size="10.00">rmg::Cylinder3D</text>
</a>
</g>
</g>
<!-- Node5&#45;&gt;Node7 -->
<g id="edge7" class="edge">
<title>Node5&#45;&gt;Node7</title>
<path fill="none" stroke="midnightblue" d="M199.22,-73.46C216.64,-68.3 236.49,-62.4 252.71,-57.59"/>
<polygon fill="midnightblue" stroke="midnightblue" points="197.89,-70.21 189.3,-76.41 199.88,-76.92 197.89,-70.21"/>
</g>
<!-- Node8 -->
<g id="node9" class="node">
<title>Node8</title>
<g id="a_node9"><a xlink:href="classrmg_1_1Sphere3D.html" target="_top" xlink:title="Visual sphere model.">
<polygon fill="white" stroke="black" points="241.5,-0.5 241.5,-19.5 330.5,-19.5 330.5,-0.5 241.5,-0.5"/>
<text text-anchor="middle" x="286" y="-7.5" font-family="Helvetica,sans-Serif" font-size="10.00">rmg::Sphere3D</text>
</a>
</g>
</g>
<!-- Node5&#45;&gt;Node8 -->
<g id="edge8" class="edge">
<title>Node5&#45;&gt;Node8</title>
<path fill="none" stroke="midnightblue" d="M193.83,-71.98C196.68,-70.44 199.43,-68.78 202,-67 221.12,-53.75 218.78,-42.1 238,-29 243.38,-25.33 249.58,-22.2 255.67,-19.59"/>
<polygon fill="midnightblue" stroke="midnightblue" points="192.06,-68.95 184.6,-76.47 195.12,-75.24 192.06,-68.95"/>
</g>
</g>
</svg>
