<?xml version="1.0" encoding="UTF-8" standalone="no"?>
<!DOCTYPE svg PUBLIC "-//W3C//DTD SVG 1.1//EN"
 "http://www.w3.org/Graphics/SVG/1.1/DTD/svg11.dtd">
<!-- Generated by graphviz version 2.40.1 (20161225.0304)
 -->
<!-- Title: Graphical Class Hierarchy Pages: 1 -->
<svg width="292pt" height="192pt"
 viewBox="0.00 0.00 292.00 192.00" xmlns="http://www.w3.org/2000/svg" xmlns:xlink="http://www.w3.org/1999/xlink">
<g id="graph0" class="graph" transform="scale(1 1) rotate(0) translate(4 188)">
<title>Graphical Class Hierarchy</title>
<polygon fill="#ffffff" stroke="transparent" points="-4,4 -4,-188 288,-188 288,4 -4,4"/>
<!-- Node0 -->
<g id="node1" class="node">
<title>Node0</title>
<g id="a_node1"><a xlink:href="classrmg_1_1internal_1_1Shader.html" target="_top" xlink:title="The shader program taking main backend role in drawing. ">
<polygon fill="#ffffff" stroke="#000000" points="0,-88.5 0,-107.5 107,-107.5 107,-88.5 0,-88.5"/>
<text text-anchor="middle" x="53.5" y="-95.5" font-family="Helvetica,sans-Serif" font-size="10.00" fill="#000000">rmg::internal::Shader</text>
</a>
</g>
</g>
<!-- Node1 -->
<g id="node2" class="node">
<title>Node1</title>
<g id="a_node2"><a xlink:href="classrmg_1_1internal_1_1GeneralShader.html" target="_top" xlink:title="Peforms general tasks like positioning and lighting. ">
<polygon fill="#ffffff" stroke="#000000" points="143,-164.5 143,-183.5 284,-183.5 284,-164.5 143,-164.5"/>
<text text-anchor="middle" x="213.5" y="-171.5" font-family="Helvetica,sans-Serif" font-size="10.00" fill="#000000">rmg::internal::GeneralShader</text>
</a>
</g>
</g>
<!-- Node0&#45;&gt;Node1 -->
<g id="edge1" class="edge">
<title>Node0&#45;&gt;Node1</title>
<path fill="none" stroke="#191970" d="M74.1644,-113.7409C91.6767,-126.4303 117.8794,-143.927 143,-155 151.4676,-158.7324 160.8386,-161.8812 169.9094,-164.4756"/>
<polygon fill="#191970" stroke="#191970" points="75.9743,-110.7266 65.8504,-107.6029 71.8166,-116.3582 75.9743,-110.7266"/>
</g>
<!-- Node2 -->
<g id="node3" class="node">
<title>Node2</title>
<g id="a_node3"><a xlink:href="classrmg_1_1internal_1_1Line3DShader.html" target="_top" xlink:title="Displays non&#45;polygon objects like lines in 3D space. ">
<polygon fill="#ffffff" stroke="#000000" points="144.5,-126.5 144.5,-145.5 282.5,-145.5 282.5,-126.5 144.5,-126.5"/>
<text text-anchor="middle" x="213.5" y="-133.5" font-family="Helvetica,sans-Serif" font-size="10.00" fill="#000000">rmg::internal::Line3DShader</text>
</a>
</g>
</g>
<!-- Node0&#45;&gt;Node2 -->
<g id="edge2" class="edge">
<title>Node0&#45;&gt;Node2</title>
<path fill="none" stroke="#191970" d="M103.8915,-109.968C126.313,-115.2931 152.3472,-121.4762 173.4156,-126.4799"/>
<polygon fill="#191970" stroke="#191970" points="104.4129,-106.4945 93.8748,-107.589 102.7953,-113.3051 104.4129,-106.4945"/>
</g>
<!-- Node3 -->
<g id="node4" class="node">
<title>Node3</title>
<g id="a_node4"><a xlink:href="classrmg_1_1internal_1_1ParticleShader.html" target="_top" xlink:title="Calculates the location of particle and displays as a 2D sprite. ">
<polygon fill="#ffffff" stroke="#000000" points="143.5,-88.5 143.5,-107.5 283.5,-107.5 283.5,-88.5 143.5,-88.5"/>
<text text-anchor="middle" x="213.5" y="-95.5" font-family="Helvetica,sans-Serif" font-size="10.00" fill="#000000">rmg::internal::ParticleShader</text>
</a>
</g>
</g>
<!-- Node0&#45;&gt;Node3 -->
<g id="edge3" class="edge">
<title>Node0&#45;&gt;Node3</title>
<path fill="none" stroke="#191970" d="M117.4809,-98C126.0164,-98 134.8056,-98 143.4381,-98"/>
<polygon fill="#191970" stroke="#191970" points="117.2228,-94.5001 107.2228,-98 117.2228,-101.5001 117.2228,-94.5001"/>
</g>
<!-- Node4 -->
<g id="node5" class="node">
<title>Node4</title>
<g id="a_node5"><a xlink:href="classrmg_1_1internal_1_1ShadowMapShader.html" target="_top" xlink:title="Generates an image representing the distance from sun at every pixel. ">
<polygon fill="#ffffff" stroke="#000000" points="148,-39 148,-69 279,-69 279,-39 148,-39"/>
<text text-anchor="start" x="156" y="-57" font-family="Helvetica,sans-Serif" font-size="10.00" fill="#000000">rmg::internal::ShadowMap</text>
<text text-anchor="middle" x="213.5" y="-46" font-family="Helvetica,sans-Serif" font-size="10.00" fill="#000000">Shader</text>
</a>
</g>
</g>
<!-- Node0&#45;&gt;Node4 -->
<g id="edge4" class="edge">
<title>Node0&#45;&gt;Node4</title>
<path fill="none" stroke="#191970" d="M98.0098,-85.7598C116.8215,-80.5866 138.917,-74.5103 158.7169,-69.0654"/>
<polygon fill="#191970" stroke="#191970" points="96.9316,-82.4263 88.2176,-88.4527 98.7877,-89.1757 96.9316,-82.4263"/>
</g>
<!-- Node5 -->
<g id="node6" class="node">
<title>Node5</title>
<g id="a_node6"><a xlink:href="classrmg_1_1internal_1_1SpriteShader.html" target="_top" xlink:title="Displays 2D objects like sprites and texts. ">
<polygon fill="#ffffff" stroke="#000000" points="147,-.5 147,-19.5 280,-19.5 280,-.5 147,-.5"/>
<text text-anchor="middle" x="213.5" y="-7.5" font-family="Helvetica,sans-Serif" font-size="10.00" fill="#000000">rmg::internal::SpriteShader</text>
</a>
</g>
</g>
<!-- Node0&#45;&gt;Node5 -->
<g id="edge5" class="edge">
<title>Node0&#45;&gt;Node5</title>
<path fill="none" stroke="#191970" d="M70.9174,-81.575C88.0444,-66.2369 115.5429,-43.709 143,-30 151.4232,-25.7944 160.8675,-22.3491 170.0387,-19.5758"/>
<polygon fill="#191970" stroke="#191970" points="68.4082,-79.1267 63.3883,-88.4568 73.1309,-84.2935 68.4082,-79.1267"/>
</g>
</g>
</svg>
