<?xml version="1.0" encoding="UTF-8" standalone="no"?>
<!DOCTYPE svg PUBLIC "-//W3C//DTD SVG 1.1//EN"
 "http://www.w3.org/Graphics/SVG/1.1/DTD/svg11.dtd">
<!-- Generated by graphviz version 2.40.1 (20161225.0304)
 -->
<!-- Title: Graphical Class Hierarchy Pages: 1 -->
<svg width="307pt" height="66pt"
 viewBox="0.00 0.00 307.00 66.00" xmlns="http://www.w3.org/2000/svg" xmlns:xlink="http://www.w3.org/1999/xlink">
<g id="graph0" class="graph" transform="scale(1 1) rotate(0) translate(4 62)">
<title>Graphical Class Hierarchy</title>
<polygon fill="#ffffff" stroke="transparent" points="-4,4 -4,-62 303,-62 303,4 -4,4"/>
<!-- Node0 -->
<g id="node1" class="node">
<title>Node0</title>
<g id="a_node1"><a xlink:href="classrmg_1_1internal_1_1ContextLoad.html" target="_top" xlink:title="Maintains the data to be loaded into OpenGL context before startup. ">
<polygon fill="#ffffff" stroke="#000000" points="0,-19.5 0,-38.5 132,-38.5 132,-19.5 0,-19.5"/>
<text text-anchor="middle" x="66" y="-26.5" font-family="Helvetica,sans-Serif" font-size="10.00" fill="#000000">rmg::internal::ContextLoad</text>
</a>
</g>
</g>
<!-- Node1 -->
<g id="node2" class="node">
<title>Node1</title>
<g id="a_node2"><a xlink:href="classrmg_1_1internal_1_1TextureLoad.html" target="_top" xlink:title="Maintains the image data before context startup. ">
<polygon fill="#ffffff" stroke="#000000" points="168,-38.5 168,-57.5 299,-57.5 299,-38.5 168,-38.5"/>
<text text-anchor="middle" x="233.5" y="-45.5" font-family="Helvetica,sans-Serif" font-size="10.00" fill="#000000">rmg::internal::TextureLoad</text>
</a>
</g>
</g>
<!-- Node0&#45;&gt;Node1 -->
<g id="edge1" class="edge">
<title>Node0&#45;&gt;Node1</title>
<path fill="none" stroke="#191970" d="M142.1684,-37.64C150.7196,-38.61 159.3771,-39.592 167.7803,-40.5452"/>
<polygon fill="#191970" stroke="#191970" points="142.5312,-34.1588 132.2004,-36.5093 141.7422,-41.1142 142.5312,-34.1588"/>
</g>
<!-- Node2 -->
<g id="node3" class="node">
<title>Node2</title>
<g id="a_node3"><a xlink:href="classrmg_1_1internal_1_1VBOLoad.html" target="_top" xlink:title="Maintains the array of VBOs before context startup. ">
<polygon fill="#ffffff" stroke="#000000" points="174,-.5 174,-19.5 293,-19.5 293,-.5 174,-.5"/>
<text text-anchor="middle" x="233.5" y="-7.5" font-family="Helvetica,sans-Serif" font-size="10.00" fill="#000000">rmg::internal::VBOLoad</text>
</a>
</g>
</g>
<!-- Node0&#45;&gt;Node2 -->
<g id="edge2" class="edge">
<title>Node0&#45;&gt;Node2</title>
<path fill="none" stroke="#191970" d="M142.2599,-20.3496C152.8264,-19.151 163.5531,-17.9343 173.7602,-16.7765"/>
<polygon fill="#191970" stroke="#191970" points="141.7422,-16.8858 132.2004,-21.4907 142.5312,-23.8412 141.7422,-16.8858"/>
</g>
</g>
</svg>
