<?xml version="1.0" encoding="UTF-8"?>
<svg width="150" height="150" version="1.1" viewBox="0 0 4680 4680" xmlns="http://www.w3.org/2000/svg" xmlns:cc="http://creativecommons.org/ns#" xmlns:dc="http://purl.org/dc/elements/1.1/" xmlns:rdf="http://www.w3.org/1999/02/22-rdf-syntax-ns#" xmlns:xlink="http://www.w3.org/1999/xlink">
<metadata>
<rdf:RDF>
<cc:Work rdf:about="">
<dc:format>image/svg+xml</dc:format>
<dc:type rdf:resource="http://purl.org/dc/dcmitype/StillImage"/>
<dc:title/>
</cc:Work>
</rdf:RDF>
</metadata>
<defs>
<circle id="b" cx="-780" r="1560"/>
<path id="a" d="m0-1351a1560 1560 0 0 0 0 2702 1560 1560 0 0 0 0-2702"/>
<path id="c" d="M 780,0 A 1560,1560 0 0 1 0,1351 1560,1560 0 0 1 -780,0 1560,1560 0 0 1 780,0"/>
</defs>
<g transform="translate(2340,1675.4)">
<use width="100%" height="100%" fill="#ff0000" xlink:href="#b"/>
<use transform="translate(1560)" width="100%" height="100%" fill="#00ff00" xlink:href="#b"/>
<use transform="translate(780,1351)" width="100%" height="100%" fill="#0000ff" xlink:href="#b"/>
<use width="100%" height="100%" fill="#ffff00" xlink:href="#a"/>
<use transform="rotate(240 5.3419e-5 450.33)" width="100%" height="100%" fill="#ff00ff" stroke="#ff00ff" stroke-width="2" xlink:href="#a"/>
<use transform="rotate(120 -5.3419e-5 450.33)" width="100%" height="100%" fill="#00ffff" stroke="#00ffff" stroke-width="2" xlink:href="#a"/>
<use width="100%" height="100%" fill="#ffffff" stroke="#ffffff" stroke-width="7" xlink:href="#c"/>
</g>
</svg>
